<svg width="315" height="31" viewBox="0 0 315 31" fill="none" xmlns="http://www.w3.org/2000/svg">
    <path
        d="M10.0909 30H0.725852V2.36364H10.2798C13.0237 2.36364 15.3807 2.9169 17.3509 4.02344C19.33 5.12097 20.8504 6.69981 21.9119 8.75994C22.9735 10.8201 23.5043 13.285 23.5043 16.1548C23.5043 19.0336 22.969 21.5076 21.8984 23.5767C20.8369 25.6458 19.303 27.2337 17.2969 28.3402C15.2997 29.4467 12.8977 30 10.0909 30ZM5.73224 25.6683H9.84801C11.7732 25.6683 13.379 25.3175 14.6655 24.6158C15.9519 23.9051 16.919 22.848 17.5668 21.4446C18.2145 20.0322 18.5384 18.2689 18.5384 16.1548C18.5384 14.0407 18.2145 12.2865 17.5668 10.892C16.919 9.48864 15.9609 8.44058 14.6925 7.74787C13.433 7.04616 11.8677 6.69531 9.99645 6.69531H5.73224V25.6683ZM28.0451 30V9.27273H32.7816V12.7273H32.9975C33.3754 11.5308 34.0231 10.6087 34.9407 9.96094C35.8673 9.30421 36.9244 8.97585 38.1119 8.97585C38.3817 8.97585 38.6831 8.98935 39.016 9.01633C39.3578 9.03433 39.6412 9.06581 39.8661 9.11079V13.6044C39.6592 13.5324 39.3308 13.4695 38.881 13.4155C38.4402 13.3525 38.0129 13.321 37.5991 13.321C36.7085 13.321 35.9078 13.5144 35.1971 13.9013C34.4954 14.2791 33.9421 14.8054 33.5373 15.4801C33.1325 16.1548 32.93 16.933 32.93 17.8146V30H28.0451ZM43.7457 30.2969C42.9271 30.2969 42.2254 30.009 41.6406 29.4332C41.0559 28.8575 40.768 28.1558 40.777 27.3281C40.768 26.5185 41.0559 25.8258 41.6406 25.25C42.2254 24.6742 42.9271 24.3864 43.7457 24.3864C44.5374 24.3864 45.2256 24.6742 45.8104 25.25C46.4041 25.8258 46.7055 26.5185 46.7145 27.3281C46.7055 27.8769 46.5616 28.3762 46.2827 28.826C46.0128 29.2758 45.6529 29.6357 45.2031 29.9055C44.7623 30.1664 44.2765 30.2969 43.7457 30.2969ZM75.5653 9.96094C75.4394 8.78243 74.9086 7.86482 73.973 7.2081C73.0464 6.55137 71.8409 6.22301 70.3565 6.22301C69.313 6.22301 68.4179 6.38044 67.6712 6.69531C66.9245 7.01018 66.3532 7.4375 65.9574 7.97727C65.5616 8.51705 65.3591 9.13329 65.3501 9.82599C65.3501 10.4018 65.4806 10.901 65.7415 11.3239C66.0114 11.7467 66.3757 12.1065 66.8345 12.4034C67.2933 12.6913 67.8016 12.9342 68.3594 13.1321C68.9171 13.33 69.4794 13.4964 70.0462 13.6314L72.6371 14.2791C73.6806 14.522 74.6837 14.8504 75.6463 15.2642C76.6179 15.678 77.486 16.1998 78.2507 16.8295C79.0244 17.4593 79.6361 18.2195 80.0859 19.1101C80.5357 20.0007 80.7607 21.0443 80.7607 22.2408C80.7607 23.8601 80.3468 25.286 79.5192 26.5185C78.6915 27.742 77.495 28.7 75.9297 29.3928C74.3733 30.0765 72.4886 30.4183 70.2756 30.4183C68.1255 30.4183 66.2588 30.0855 64.6754 29.4197C63.1011 28.754 61.8686 27.7824 60.978 26.505C60.0964 25.2275 59.6196 23.6712 59.5476 21.8359H64.473C64.545 22.7985 64.8419 23.5992 65.3636 24.2379C65.8854 24.8767 66.5646 25.3535 67.4013 25.6683C68.2469 25.9832 69.1915 26.1406 70.2351 26.1406C71.3236 26.1406 72.2772 25.9787 73.0959 25.6548C73.9235 25.322 74.5713 24.8632 75.0391 24.2784C75.5069 23.6847 75.7453 22.992 75.7543 22.2003C75.7453 21.4806 75.5339 20.8868 75.12 20.419C74.7062 19.9422 74.1259 19.5464 73.3793 19.2315C72.6416 18.9077 71.7779 18.6198 70.7884 18.3679L67.6442 17.5582C65.3681 16.9735 63.5689 16.0874 62.2464 14.8999C60.933 13.7034 60.2763 12.1155 60.2763 10.1364C60.2763 8.50805 60.7171 7.08215 61.5987 5.85866C62.4893 4.63518 63.6993 3.68608 65.2287 3.01136C66.758 2.32765 68.4898 1.98579 70.424 1.98579C72.3852 1.98579 74.1035 2.32765 75.5788 3.01136C77.0632 3.68608 78.2282 4.62618 79.0739 5.83167C79.9195 7.02817 80.3558 8.40459 80.3828 9.96094H75.5653ZM90.9725 30.4183C89.659 30.4183 88.476 30.1844 87.4235 29.7166C86.3799 29.2398 85.5523 28.5381 84.9405 27.6115C84.3378 26.6849 84.0364 25.5424 84.0364 24.1839C84.0364 23.0144 84.2523 22.0473 84.6841 21.2827C85.1159 20.518 85.7052 19.9062 86.4519 19.4474C87.1986 18.9886 88.0397 18.6423 88.9753 18.4084C89.9199 18.1655 90.896 17.9901 91.9036 17.8821C93.1181 17.7562 94.1032 17.6437 94.8588 17.5447C95.6145 17.4368 96.1633 17.2749 96.5051 17.0589C96.856 16.834 97.0314 16.4877 97.0314 16.0199V15.9389C97.0314 14.9223 96.7301 14.1352 96.1273 13.5774C95.5246 13.0196 94.6564 12.7408 93.5229 12.7408C92.3264 12.7408 91.3773 13.0017 90.6756 13.5234C89.9829 14.0452 89.5151 14.6615 89.2722 15.3722L84.7111 14.7244C85.071 13.465 85.6647 12.4124 86.4924 11.5668C87.32 10.7121 88.3321 10.0734 89.5286 9.65057C90.7251 9.21875 92.0475 9.00284 93.4959 9.00284C94.4945 9.00284 95.4886 9.11979 96.4782 9.35369C97.4677 9.58759 98.3719 9.97443 99.1905 10.5142C100.009 11.045 100.666 11.7692 101.161 12.6868C101.664 13.6044 101.916 14.7514 101.916 16.1278V30H97.2203V27.1527H97.0584C96.7615 27.7285 96.3432 28.2682 95.8034 28.772C95.2727 29.2668 94.6025 29.6671 93.7928 29.973C92.9921 30.2699 92.052 30.4183 90.9725 30.4183ZM92.2409 26.8288C93.2215 26.8288 94.0717 26.6354 94.7914 26.2486C95.5111 25.8527 96.0643 25.331 96.4512 24.6832C96.847 24.0355 97.0449 23.3293 97.0449 22.5646V20.1222C96.892 20.2481 96.6311 20.3651 96.2623 20.473C95.9024 20.581 95.4976 20.6754 95.0478 20.7564C94.598 20.8374 94.1526 20.9093 93.7118 20.9723C93.271 21.0353 92.8887 21.0893 92.5648 21.1342C91.8361 21.2332 91.1839 21.3951 90.6081 21.62C90.0324 21.8449 89.5781 22.1598 89.2452 22.5646C88.9123 22.9605 88.7459 23.4732 88.7459 24.103C88.7459 25.0026 89.0743 25.6818 89.731 26.1406C90.3877 26.5994 91.2244 26.8288 92.2409 26.8288ZM111.713 17.8551V30H106.828V9.27273H111.497V12.7947H111.74C112.217 11.6342 112.977 10.7121 114.021 10.0284C115.073 9.3447 116.373 9.00284 117.921 9.00284C119.351 9.00284 120.597 9.30871 121.659 9.92045C122.729 10.5322 123.557 11.4183 124.142 12.5788C124.735 13.7393 125.028 15.1473 125.019 16.8026V30H120.134V17.5582C120.134 16.1728 119.774 15.0888 119.054 14.3061C118.343 13.5234 117.358 13.1321 116.099 13.1321C115.244 13.1321 114.484 13.321 113.818 13.6989C113.162 14.0677 112.644 14.603 112.267 15.3047C111.898 16.0064 111.713 16.8565 111.713 17.8551ZM137.676 30.3643C136.048 30.3643 134.591 29.946 133.304 29.1094C132.018 28.2727 131.001 27.0582 130.254 25.4659C129.508 23.8736 129.134 21.9394 129.134 19.6634C129.134 17.3603 129.512 15.4171 130.268 13.8338C131.033 12.2415 132.063 11.0405 133.358 10.2308C134.654 9.41217 136.097 9.00284 137.69 9.00284C138.904 9.00284 139.903 9.20975 140.686 9.62358C141.468 10.0284 142.089 10.5187 142.548 11.0945C143.007 11.6612 143.362 12.1965 143.614 12.7003H143.816V2.36364H148.715V30H143.911V26.7344H143.614C143.362 27.2382 142.998 27.7734 142.521 28.3402C142.044 28.898 141.414 29.3748 140.632 29.7706C139.849 30.1664 138.864 30.3643 137.676 30.3643ZM139.039 26.3565C140.074 26.3565 140.955 26.0777 141.684 25.5199C142.413 24.9531 142.966 24.166 143.344 23.1584C143.722 22.1508 143.911 20.9768 143.911 19.6364C143.911 18.2959 143.722 17.1309 143.344 16.1413C142.975 15.1518 142.426 14.3826 141.698 13.8338C140.978 13.285 140.092 13.0107 139.039 13.0107C137.951 13.0107 137.042 13.294 136.313 13.8608C135.585 14.4276 135.036 15.2102 134.667 16.2088C134.298 17.2074 134.114 18.3499 134.114 19.6364C134.114 20.9318 134.298 22.0878 134.667 23.1044C135.045 24.112 135.598 24.9081 136.327 25.4929C137.065 26.0687 137.969 26.3565 139.039 26.3565ZM153.92 30V9.27273H158.657V12.7273H158.873C159.25 11.5308 159.898 10.6087 160.816 9.96094C161.742 9.30421 162.799 8.97585 163.987 8.97585C164.257 8.97585 164.558 8.98935 164.891 9.01633C165.233 9.03433 165.516 9.06581 165.741 9.11079V13.6044C165.534 13.5324 165.206 13.4695 164.756 13.4155C164.315 13.3525 163.888 13.321 163.474 13.321C162.583 13.321 161.783 13.5144 161.072 13.9013C160.37 14.2791 159.817 14.8054 159.412 15.4801C159.007 16.1548 158.805 16.933 158.805 17.8146V30H153.92ZM177.174 30.4048C175.15 30.4048 173.396 29.9595 171.911 29.0689C170.427 28.1783 169.276 26.9323 168.457 25.331C167.647 23.7296 167.242 21.8584 167.242 19.7173C167.242 17.5762 167.647 15.7005 168.457 14.0902C169.276 12.4799 170.427 11.2294 171.911 10.3388C173.396 9.44815 175.15 9.00284 177.174 9.00284C179.198 9.00284 180.953 9.44815 182.437 10.3388C183.921 11.2294 185.068 12.4799 185.878 14.0902C186.697 15.7005 187.106 17.5762 187.106 19.7173C187.106 21.8584 186.697 23.7296 185.878 25.331C185.068 26.9323 183.921 28.1783 182.437 29.0689C180.953 29.9595 179.198 30.4048 177.174 30.4048ZM177.201 26.4915C178.299 26.4915 179.216 26.1901 179.954 25.5874C180.692 24.9756 181.24 24.157 181.6 23.1314C181.969 22.1058 182.154 20.9633 182.154 19.7038C182.154 18.4354 181.969 17.2884 181.6 16.2628C181.24 15.2282 180.692 14.4051 179.954 13.7933C179.216 13.1816 178.299 12.8757 177.201 12.8757C176.077 12.8757 175.141 13.1816 174.394 13.7933C173.657 14.4051 173.103 15.2282 172.735 16.2628C172.375 17.2884 172.195 18.4354 172.195 19.7038C172.195 20.9633 172.375 22.1058 172.735 23.1314C173.103 24.157 173.657 24.9756 174.394 25.5874C175.141 26.1901 176.077 26.4915 177.201 26.4915ZM200.894 30V2.36364H205.9V14.0632H218.706V2.36364H223.726V30H218.706V18.2599H205.9V30H200.894ZM228.955 30V9.27273H233.84V30H228.955ZM231.411 6.33097C230.638 6.33097 229.972 6.07457 229.414 5.56179C228.856 5.04001 228.577 4.41477 228.577 3.68608C228.577 2.94839 228.856 2.32315 229.414 1.81037C229.972 1.28859 230.638 1.0277 231.411 1.0277C232.194 1.0277 232.86 1.28859 233.408 1.81037C233.966 2.32315 234.245 2.94839 234.245 3.68608C234.245 4.41477 233.966 5.04001 233.408 5.56179C232.86 6.07457 232.194 6.33097 231.411 6.33097ZM243.748 2.36364V30H238.863V2.36364H243.748ZM254.736 30.4183C253.423 30.4183 252.24 30.1844 251.187 29.7166C250.144 29.2398 249.316 28.5381 248.704 27.6115C248.101 26.6849 247.8 25.5424 247.8 24.1839C247.8 23.0144 248.016 22.0473 248.448 21.2827C248.88 20.518 249.469 19.9062 250.216 19.4474C250.962 18.9886 251.803 18.6423 252.739 18.4084C253.684 18.1655 254.66 17.9901 255.667 17.8821C256.882 17.7562 257.867 17.6437 258.623 17.5447C259.378 17.4368 259.927 17.2749 260.269 17.0589C260.62 16.834 260.795 16.4877 260.795 16.0199V15.9389C260.795 14.9223 260.494 14.1352 259.891 13.5774C259.288 13.0196 258.42 12.7408 257.287 12.7408C256.09 12.7408 255.141 13.0017 254.439 13.5234C253.747 14.0452 253.279 14.6615 253.036 15.3722L248.475 14.7244C248.835 13.465 249.428 12.4124 250.256 11.5668C251.084 10.7121 252.096 10.0734 253.292 9.65057C254.489 9.21875 255.811 9.00284 257.26 9.00284C258.258 9.00284 259.252 9.11979 260.242 9.35369C261.231 9.58759 262.136 9.97443 262.954 10.5142C263.773 11.045 264.43 11.7692 264.924 12.6868C265.428 13.6044 265.68 14.7514 265.68 16.1278V30H260.984V27.1527H260.822C260.525 27.7285 260.107 28.2682 259.567 28.772C259.036 29.2668 258.366 29.6671 257.556 29.973C256.756 30.2699 255.816 30.4183 254.736 30.4183ZM256.005 26.8288C256.985 26.8288 257.835 26.6354 258.555 26.2486C259.275 25.8527 259.828 25.331 260.215 24.6832C260.611 24.0355 260.809 23.3293 260.809 22.5646V20.1222C260.656 20.2481 260.395 20.3651 260.026 20.473C259.666 20.581 259.261 20.6754 258.811 20.7564C258.362 20.8374 257.916 20.9093 257.475 20.9723C257.035 21.0353 256.652 21.0893 256.328 21.1342C255.6 21.2332 254.948 21.3951 254.372 21.62C253.796 21.8449 253.342 22.1598 253.009 22.5646C252.676 22.9605 252.51 23.4732 252.51 24.103C252.51 25.0026 252.838 25.6818 253.495 26.1406C254.151 26.5994 254.988 26.8288 256.005 26.8288ZM255.6 6.54688L258.623 0.379971H263.4L259.257 6.54688H255.6ZM270.592 30V9.27273H275.328V12.7273H275.544C275.922 11.5308 276.57 10.6087 277.488 9.96094C278.414 9.30421 279.471 8.97585 280.659 8.97585C280.929 8.97585 281.23 8.98935 281.563 9.01633C281.905 9.03433 282.188 9.06581 282.413 9.11079V13.6044C282.206 13.5324 281.878 13.4695 281.428 13.4155C280.987 13.3525 280.56 13.321 280.146 13.321C279.255 13.321 278.455 13.5144 277.744 13.9013C277.042 14.2791 276.489 14.8054 276.084 15.4801C275.679 16.1548 275.477 16.933 275.477 17.8146V30H270.592ZM285.658 30V9.27273H290.543V30H285.658ZM288.114 6.33097C287.341 6.33097 286.675 6.07457 286.117 5.56179C285.559 5.04001 285.281 4.41477 285.281 3.68608C285.281 2.94839 285.559 2.32315 286.117 1.81037C286.675 1.28859 287.341 1.0277 288.114 1.0277C288.897 1.0277 289.563 1.28859 290.112 1.81037C290.669 2.32315 290.948 2.94839 290.948 3.68608C290.948 4.41477 290.669 5.04001 290.112 5.56179C289.563 6.07457 288.897 6.33097 288.114 6.33097ZM304.608 30.4048C302.584 30.4048 300.829 29.9595 299.345 29.0689C297.861 28.1783 296.709 26.9323 295.89 25.331C295.081 23.7296 294.676 21.8584 294.676 19.7173C294.676 17.5762 295.081 15.7005 295.89 14.0902C296.709 12.4799 297.861 11.2294 299.345 10.3388C300.829 9.44815 302.584 9.00284 304.608 9.00284C306.632 9.00284 308.386 9.44815 309.871 10.3388C311.355 11.2294 312.502 12.4799 313.312 14.0902C314.13 15.7005 314.54 17.5762 314.54 19.7173C314.54 21.8584 314.13 23.7296 313.312 25.331C312.502 26.9323 311.355 28.1783 309.871 29.0689C308.386 29.9595 306.632 30.4048 304.608 30.4048ZM304.635 26.4915C305.732 26.4915 306.65 26.1901 307.388 25.5874C308.125 24.9756 308.674 24.157 309.034 23.1314C309.403 22.1058 309.587 20.9633 309.587 19.7038C309.587 18.4354 309.403 17.2884 309.034 16.2628C308.674 15.2282 308.125 14.4051 307.388 13.7933C306.65 13.1816 305.732 12.8757 304.635 12.8757C303.51 12.8757 302.575 13.1816 301.828 13.7933C301.09 14.4051 300.537 15.2282 300.168 16.2628C299.808 17.2884 299.628 18.4354 299.628 19.7038C299.628 20.9633 299.808 22.1058 300.168 23.1314C300.537 24.157 301.09 24.9756 301.828 25.5874C302.575 26.1901 303.51 26.4915 304.635 26.4915Z"
        fill="#343a40" />
</svg>