<svg xmlns="http://www.w3.org/2000/svg" xmlns:xlink="http://www.w3.org/1999/xlink" width="118.36" height="116.789" viewBox="0 0 118.36 116.789">
  <defs>
    <radialGradient id="radial-gradient" cx="0.683" cy="0.382" r="0.575" gradientTransform="translate(0)" gradientUnits="objectBoundingBox">
      <stop offset="0.4" stop-color="#cee1e0"/>
      <stop offset="1" stop-color="#1b7b78"/>
    </radialGradient>
  </defs>
  <g id="Grupo_2445" data-name="Grupo 2445" transform="translate(-249.63 -126.175)">
    <g id="Componente_9_1" data-name="Componente 9 – 1" transform="translate(249.63 126.175)">
      <g id="Grupo_1957" data-name="Grupo 1957">
        <g id="Grupo_1948" data-name="Grupo 1948" transform="translate(29.825)">
          <path id="Caminho_3493" data-name="Caminho 3493" d="M392.933,154.658a28.483,28.483,0,1,1-28.485-28.483A28.483,28.483,0,0,1,392.933,154.658Z" transform="translate(-335.967 -126.175)" fill="url(#radial-gradient)"/>
          <path id="União_2" data-name="União 2" d="M15.459,53.825a82.581,82.581,0,0,0,26.033,0,28.477,28.477,0,0,1-26.033,0Zm-2.887-1.7A28.618,28.618,0,0,1,7.542,47.8c3.811.682,7.653,1.18,11.444,1.493.039,0,.024,0,.011,0,1.412.137,1.4,1.258,2.841,1.342,3.389.21,6.307.209,9.6.193a1.977,1.977,0,0,1,1.379.42,1.642,1.642,0,0,0,1.231.419A66.653,66.653,0,0,0,44.571,50.5c1.173-.2,2.547-2.328,3.872-2.518.007-.008.635-.118.966-.176a28.678,28.678,0,0,1-5.031,4.323,91.09,91.09,0,0,1-15.9,1.411A91.074,91.074,0,0,1,12.572,52.125Zm15.9-3.746a129.048,129.048,0,0,1-22.1-1.922A28.666,28.666,0,0,1,3.8,42.722c3.151.5,7.375.923,9.562,1.138.654.064.857.559,1.462.621s1.956.191,2.364.19c1.009,0,1.032-.362,1.593-.394.189-.012.414,0,.711,0,2.557.135,7.729.25,7.766.25,2.234.029,1.642,1.944,4.363,2.013a132.49,132.49,0,0,0,18.33-1.614c1.18-.145,1.528-1.945,2.629-2.12,0,0,.383-.058.563-.085a27.008,27.008,0,0,1-2.569,3.733,129.07,129.07,0,0,1-22.1,1.923Zm.037-5.171q-4.432,0-8.867-.21c-.113-.007-.238-.015-.373-.021-.9-.042-1.047-.547-1.8-.611-.547-.045-1.687-.148-2.288-.159a1.725,1.725,0,0,0-.934.19,1.712,1.712,0,0,1-1.042.183c-2.428-.2-6.768-.639-10.071-1.086A28.426,28.426,0,0,1,1.621,38q12.656,1.282,25.269,1.351c2.333.014,2.072,2.06,4.419,2.058a201.333,201.333,0,0,0,21.079-1.42c2.054-.262,1.588-1.828,2.521-1.945,0,0,.288-.03.42-.045a28.19,28.19,0,0,1-1.513,3.493,188.576,188.576,0,0,1-25.3,1.713ZM1.233,36.832a28.523,28.523,0,0,1-.8-3.376c7.638.412,15.52.626,23.14.748,2.354.04,1.841,2.164,4.916,2.123,8.577,0,16.9-.352,25.486-1.01,2.06-.183,1.3-1.762,2.2-1.84,0,0,.232-.015.351-.021a26.591,26.591,0,0,1-.8,3.376q-13.636,1.222-27.242,1.222T1.233,36.832ZM.25,32.308A28.707,28.707,0,0,1,0,28.968q10,.059,20,.072c2.319,0,1.943,2.1,4.39,2.114,10.206.055,20.227-.084,30.457-.414,1.843-.084.935-1.73,1.7-1.766,0,0,.274-.006.4-.006a29.059,29.059,0,0,1-.25,3.34q-14.117.591-28.222.591T.25,32.308ZM0,27.839A29.123,29.123,0,0,1,.271,24.5c6.9-.252,11.82-.38,17.345-.487,2.363,0,1.843,2.082,4.944,2.038-.011,0,20.951.018,31.457.14,0,0,0,0,.01,0s.013,0,.013,0c2.656.059,1.477-1.662,2.207-1.7,0,0,.3.007.431.013a24.9,24.9,0,0,1,.268,3.342Q28.474,27.664,0,27.839ZM.459,23.35a28.124,28.124,0,0,1,.825-3.38C6.146,19.535,11,19.2,15.858,19a3.706,3.706,0,0,1,.447-.009l.208,0C18.876,19,18.284,21,21.385,20.963c5.854-.022,20.636-.113,31.882.62,1.429.134,1.691-.342,1.729-.817.035-.435-.118-.871.264-.838.016,0,.287.032.407.042a26.175,26.175,0,0,1,.825,3.38A518.4,518.4,0,0,0,.459,23.35ZM1.68,18.8a28.354,28.354,0,0,1,1.546-3.5c4.383-.59,10.436-1.143,13.361-1.326a2.646,2.646,0,0,1,2.2.946,3.62,3.62,0,0,0,2.746.953h.012c.008,0,.017,0,.012,0a245.731,245.731,0,0,1,30.045.992s0,0,.011,0,.012,0,.012,0c1.148.091,1.343-.357,1.374-.806.03-.427-.09-.855.325-.814l.4.055a28.123,28.123,0,0,1,1.546,3.5A265.407,265.407,0,0,0,1.68,18.8ZM3.91,14.067a28.66,28.66,0,0,1,2.619-3.743c3.731-.587,7.994-1.142,11.728-1.482a2.459,2.459,0,0,1,2.184.936,3.454,3.454,0,0,0,2.67.95,159.106,159.106,0,0,1,25.8,1.228c1.153.15,1.153-.339,1.038-.829-.107-.454-.314-.908.206-.852.092.011.2.036.267.048a28.569,28.569,0,0,1,2.619,3.743A169.3,169.3,0,0,0,3.91,14.067Zm3.823-5.1a28.626,28.626,0,0,1,5.2-4.35C17.953,3.812,22.9,3.437,23.3,3.426c2.15-.144,1.606,2.07,4.627,2.081h0A110.157,110.157,0,0,1,43.781,6.575s0,0,0,0c.521.073.792-.123.642-.5-.207-.518-1.084-1.118-1.285-1.406-.072-.1-.055-.178.1-.175s.608.094.777.123a28.211,28.211,0,0,1,5.2,4.352A117.081,117.081,0,0,0,7.733,8.971ZM15.939,2.9a28.505,28.505,0,0,1,25.072,0A82.388,82.388,0,0,0,15.939,2.9Z" transform="translate(0.016)" fill="#005a54"/>
        </g>
        <g id="Grupo_1956" data-name="Grupo 1956" transform="translate(0 68.385)">
          <g id="Grupo_1952" data-name="Grupo 1952" transform="translate(17.042 22.004)">
            <g id="Grupo_1951" data-name="Grupo 1951">
              <g id="Grupo_1950" data-name="Grupo 1950">
                <g id="Grupo_1949" data-name="Grupo 1949">
                  <path id="Caminho_3507" data-name="Caminho 3507" d="M300.191,388.987v2.387h1.769v-2.387h1.254v6.142H301.96V392.39h-1.769v2.739h-1.228v-6.142Z" transform="translate(-298.963 -388.589)" fill="#005a54"/>
                  <path id="Caminho_3508" data-name="Caminho 3508" d="M317.818,394.094a2.343,2.343,0,0,1,.521,1.653,2.458,2.458,0,0,1-.565,1.751,1.854,1.854,0,0,1-1.5.627,2.066,2.066,0,0,1-2.031-2.342,2.1,2.1,0,0,1,2.031-2.369A1.89,1.89,0,0,1,317.818,394.094Zm-2.13.653a3.2,3.2,0,0,0-.124,1.008,3.234,3.234,0,0,0,.149,1.139.654.654,0,0,0,.6.372c.513,0,.734-.458.734-1.529a2.09,2.09,0,0,0-.239-1.21.626.626,0,0,0-.51-.24A.639.639,0,0,0,315.687,394.747Z" transform="translate(-308.967 -391.487)" fill="#005a54"/>
                  <path id="Caminho_3509" data-name="Caminho 3509" d="M330.463,394.531a2.389,2.389,0,0,0-1.115-.326c-.343,0-.573.176-.573.44,0,.23.15.354.564.463l.549.138a1.428,1.428,0,0,1,.9.514,1.2,1.2,0,0,1,.248.769c0,.936-.778,1.574-1.937,1.574a4.007,4.007,0,0,1-1.829-.523l.424-.865a3.311,3.311,0,0,0,1.5.514.556.556,0,0,0,.6-.514c0-.31-.222-.468-.7-.558l-.529-.1a1.617,1.617,0,0,1-.831-.462,1.37,1.37,0,0,1-.257-.813c0-.884.7-1.475,1.751-1.475a3.41,3.41,0,0,1,1.618.424Z" transform="translate(-317.493 -391.42)" fill="#005a54"/>
                  <path id="Caminho_3510" data-name="Caminho 3510" d="M341.657,393.413a2.019,2.019,0,0,1,.081.424,1.508,1.508,0,0,1,1.113-.424,1.646,1.646,0,0,1,.894.273,2.158,2.158,0,0,1,.839,1.956,2.511,2.511,0,0,1-.627,1.971,1.619,1.619,0,0,1-1.213.512,1.882,1.882,0,0,1-.944-.24,2.513,2.513,0,0,1,.017.371v1.416l-1.14.3v-5.237a5.767,5.767,0,0,0-.072-1.139Zm.822,3.774c.584,0,.813-.4.813-1.431a3.221,3.221,0,0,0-.114-1,.543.543,0,0,0-.565-.38,1.089,1.089,0,0,0-.788.346v2.2A1.12,1.12,0,0,0,342.479,397.187Z" transform="translate(-326.219 -391.487)" fill="#005a54"/>
                  <path id="Caminho_3511" data-name="Caminho 3511" d="M355.786,388.673a.729.729,0,1,1-.717-.734A.722.722,0,0,1,355.786,388.673Zm-.142,1.14v4.63h-1.185V390Z" transform="translate(-335.202 -387.903)" fill="#005a54"/>
                  <path id="Caminho_3512" data-name="Caminho 3512" d="M362.6,391.887h-.761v2.272c0,.575.105.725.51.725a1.561,1.561,0,0,0,.427-.088l.149.707a2.486,2.486,0,0,1-.963.2,1.225,1.225,0,0,1-1.22-.662,1.655,1.655,0,0,1-.079-.7v-2.458h-.451v-.814h.451a7.83,7.83,0,0,1,.044-1.069l1.2-.3c-.043.415-.069.908-.069,1.369H362.9Z" transform="translate(-339.055 -389.059)" fill="#005a54"/>
                  <path id="Caminho_3513" data-name="Caminho 3513" d="M370.259,393.653a3.049,3.049,0,0,1,1.238-.265,1.389,1.389,0,0,1,1.459.788,2.1,2.1,0,0,1,.079.811l-.027,1.521v.08a.92.92,0,0,0,.424.927l-.627.725a1.269,1.269,0,0,1-.638-.548,2.195,2.195,0,0,1-.273.241,1.572,1.572,0,0,1-.91.246c-1.007,0-1.556-.512-1.556-1.415,0-1.061.732-1.555,2.174-1.555.09,0,.17,0,.265.008v-.185c0-.5-.1-.673-.529-.673a2.5,2.5,0,0,0-1.308.513l-.5-.849A4.4,4.4,0,0,1,370.259,393.653Zm1.539,2.378c-.822,0-1.105.149-1.105.69a.536.536,0,0,0,.522.591.862.862,0,0,0,.619-.309l.017-.972Z" transform="translate(-345.087 -391.47)" fill="#005a54"/>
                  <path id="Caminho_3514" data-name="Caminho 3514" d="M384.367,389.011v3.527c0,.775.008.884.078,1.008a.277.277,0,0,0,.241.123.408.408,0,0,0,.132-.017l.2.706a1.951,1.951,0,0,1-.708.125,1.06,1.06,0,0,1-1.051-.62,2.428,2.428,0,0,1-.108-1.015V389.47a11.667,11.667,0,0,0-.061-1.361l1.213-.273A6.612,6.612,0,0,1,384.367,389.011Z" transform="translate(-354.031 -387.836)" fill="#005a54"/>
                  <path id="Caminho_3515" data-name="Caminho 3515" d="M399.942,397.508a2.582,2.582,0,0,1-1.7.627,2.106,2.106,0,0,1-2.14-2.344,2.472,2.472,0,0,1,.565-1.793,1.784,1.784,0,0,1,1.424-.61,1.842,1.842,0,0,1,1.309.478,2.655,2.655,0,0,1,.6,1.979v.275h-2.618v.036c0,.7.346,1.095.957,1.095a1.771,1.771,0,0,0,1.148-.448Zm-1.175-2.255V395.2a1.175,1.175,0,0,0-.14-.681.574.574,0,0,0-.522-.264c-.449,0-.707.352-.707.981v.018Z" transform="translate(-362.543 -391.47)" fill="#005a54"/>
                  <path id="Caminho_3516" data-name="Caminho 3516" d="M417.785,388.987l.8,3.075a9.066,9.066,0,0,1,.212.972c.054-.319.124-.636.221-1l.833-3.049h1.571l.547,6.142h-1.209l-.229-3.279c-.028-.389-.044-.7-.044-1.024-.071.354-.125.572-.232.945l-.973,3.358h-1.05l-.877-3.226c-.08-.3-.185-.733-.245-1.087,0,.364-.019.725-.046,1.1l-.212,3.208h-1.228l.574-6.142Z" transform="translate(-375.327 -388.589)" fill="#005a54"/>
                  <path id="Caminho_3517" data-name="Caminho 3517" d="M437.42,393.653a3.056,3.056,0,0,1,1.239-.265c.761,0,1.283.282,1.458.788a2.075,2.075,0,0,1,.081.811l-.027,1.521v.081a.919.919,0,0,0,.426.927l-.627.725a1.261,1.261,0,0,1-.638-.548,2.26,2.26,0,0,1-.274.241,1.566,1.566,0,0,1-.91.246c-1.007,0-1.556-.512-1.556-1.415,0-1.061.735-1.555,2.175-1.555.089,0,.168,0,.263.008v-.185c0-.5-.095-.673-.529-.673a2.5,2.5,0,0,0-1.308.513l-.505-.849A4.369,4.369,0,0,1,437.42,393.653Zm1.539,2.378c-.823,0-1.107.149-1.107.69a.537.537,0,0,0,.524.591.847.847,0,0,0,.617-.309l.018-.972Z" transform="translate(-389.048 -391.47)" fill="#005a54"/>
                  <path id="Caminho_3518" data-name="Caminho 3518" d="M451.518,391.887h-.76v2.272c0,.575.106.725.514.725a1.558,1.558,0,0,0,.424-.088l.149.707a2.485,2.485,0,0,1-.962.2,1.227,1.227,0,0,1-1.22-.662,1.679,1.679,0,0,1-.08-.7v-2.458h-.45v-.814h.45a7.894,7.894,0,0,1,.044-1.069l1.2-.3a12.969,12.969,0,0,0-.073,1.369h1.062Z" transform="translate(-397.257 -389.059)" fill="#005a54"/>
                  <path id="Caminho_3519" data-name="Caminho 3519" d="M462.14,397.508a2.6,2.6,0,0,1-1.708.627,2.105,2.105,0,0,1-2.137-2.344A2.478,2.478,0,0,1,458.86,394a1.782,1.782,0,0,1,1.424-.61,1.841,1.841,0,0,1,1.309.478,2.654,2.654,0,0,1,.6,1.979v.275h-2.619v.036c0,.7.347,1.095.957,1.095a1.775,1.775,0,0,0,1.15-.448Zm-1.175-2.255V395.2a1.168,1.168,0,0,0-.142-.681.571.571,0,0,0-.521-.264c-.45,0-.708.352-.708.981v.018Z" transform="translate(-403.255 -391.47)" fill="#005a54"/>
                  <path id="Caminho_3520" data-name="Caminho 3520" d="M472.791,393.364a1.478,1.478,0,0,1,.187.643,1.924,1.924,0,0,1,.672-.574,1.019,1.019,0,0,1,.388-.07.922.922,0,0,1,.443.1l-.329,1.044a.692.692,0,0,0-.344-.088.945.945,0,0,0-.724.38v3.2H471.9v-3.023a4.036,4.036,0,0,0-.17-1.326Z" transform="translate(-412.047 -391.454)" fill="#005a54"/>
                  <path id="Caminho_3521" data-name="Caminho 3521" d="M481.846,393.337a1.152,1.152,0,0,1,.169.564,5.481,5.481,0,0,1,.522-.335,1.861,1.861,0,0,1,.812-.195,1.124,1.124,0,0,1,1.088.657,1.807,1.807,0,0,1,.088.644v3.3h-1.166v-2.944c0-.511-.089-.661-.4-.661a1.374,1.374,0,0,0-.822.405v3.2h-1.185V394.7a3.243,3.243,0,0,0-.159-1.061Z" transform="translate(-417.982 -391.437)" fill="#005a54"/>
                  <path id="Caminho_3522" data-name="Caminho 3522" d="M496.2,388.673a.729.729,0,1,1-1.457,0,.738.738,0,0,1,.743-.734A.72.72,0,0,1,496.2,388.673Zm-.141,1.14v4.63h-1.183V390Z" transform="translate(-427.113 -387.903)" fill="#005a54"/>
                  <path id="Caminho_3523" data-name="Caminho 3523" d="M505.125,392.724a4.409,4.409,0,0,0,.168,1.651h-1.061a.789.789,0,0,1-.07-.264,1.517,1.517,0,0,1-1.043.379c-1.151,0-1.874-.891-1.874-2.3s.788-2.386,1.935-2.386a1.227,1.227,0,0,1,.807.256,5.318,5.318,0,0,1-.037-.674v-1.553l1.176.184Zm-1.8-1.972c-.53,0-.759.443-.759,1.45,0,.972.2,1.29.82,1.29a.851.851,0,0,0,.584-.289v-2.159A.99.99,0,0,0,503.321,390.753Z" transform="translate(-431.366 -387.836)" fill="#005a54"/>
                  <path id="Caminho_3524" data-name="Caminho 3524" d="M516.255,393.653a3.038,3.038,0,0,1,1.237-.265,1.389,1.389,0,0,1,1.459.788,2.1,2.1,0,0,1,.08.811L519,396.508v.081a.92.92,0,0,0,.424.927l-.629.725a1.262,1.262,0,0,1-.635-.548,2.506,2.506,0,0,1-.275.241,1.571,1.571,0,0,1-.91.246c-1.009,0-1.557-.512-1.557-1.415,0-1.061.736-1.555,2.174-1.555.089,0,.169,0,.265.008v-.185c0-.5-.1-.673-.529-.673a2.509,2.509,0,0,0-1.31.513l-.5-.849A4.3,4.3,0,0,1,516.255,393.653Zm1.538,2.378c-.823,0-1.106.149-1.106.69a.536.536,0,0,0,.522.591.859.859,0,0,0,.619-.309l.017-.972Z" transform="translate(-440.648 -391.47)" fill="#005a54"/>
                  <path id="Caminho_3525" data-name="Caminho 3525" d="M532.458,392.724a4.415,4.415,0,0,0,.17,1.651h-1.061a.8.8,0,0,1-.071-.264,1.514,1.514,0,0,1-1.041.379c-1.151,0-1.876-.891-1.876-2.3s.787-2.386,1.938-2.386a1.221,1.221,0,0,1,.8.256,5.44,5.44,0,0,1-.036-.674v-1.553l1.173.184Zm-1.8-1.972c-.53,0-.76.443-.76,1.45,0,.972.2,1.29.822,1.29a.851.851,0,0,0,.585-.289v-2.159A.99.99,0,0,0,530.656,390.753Z" transform="translate(-449.259 -387.836)" fill="#005a54"/>
                  <path id="Caminho_3526" data-name="Caminho 3526" d="M546.556,397.508a2.6,2.6,0,0,1-1.708.627,2.106,2.106,0,0,1-2.139-2.344,2.482,2.482,0,0,1,.566-1.793,1.782,1.782,0,0,1,1.424-.61,1.845,1.845,0,0,1,1.308.478,2.653,2.653,0,0,1,.6,1.979v.275h-2.617v.036c0,.7.346,1.095.956,1.095a1.777,1.777,0,0,0,1.148-.448Zm-1.177-2.255V395.2a1.154,1.154,0,0,0-.143-.681.569.569,0,0,0-.521-.264c-.451,0-.708.352-.708.981v.018Z" transform="translate(-458.508 -391.47)" fill="#005a54"/>
                </g>
              </g>
            </g>
          </g>
          <g id="Grupo_1955" data-name="Grupo 1955">
            <g id="Grupo_1954" data-name="Grupo 1954">
              <g id="Grupo_1953" data-name="Grupo 1953">
                <path id="Caminho_3527" data-name="Caminho 3527" d="M260.021,328.1a6.98,6.98,0,0,0-3.775-1.234c-1.328,0-2.258.768-2.258,1.864,0,.839.441,1.257,1.793,1.629l1.957.538c2.657.721,4.1,2.424,4.1,4.823,0,3.284-2.659,5.453-6.69,5.453a11.575,11.575,0,0,1-5.521-1.469l1.211-2.54a9.181,9.181,0,0,0,4.451,1.306c1.864,0,2.841-.77,2.841-2.215,0-1.047-.674-1.7-2.12-2.1l-1.794-.491a4.9,4.9,0,0,1-3.193-2.05,4.672,4.672,0,0,1-.675-2.469c0-2.959,2.377-5.009,5.8-5.009a9.5,9.5,0,0,1,5.407,1.631Z" transform="translate(-249.63 -324.137)" fill="#005a54"/>
                <path id="Caminho_3528" data-name="Caminho 3528" d="M292.492,337.85a8.064,8.064,0,0,1,3.261-.7c2,0,3.378.746,3.845,2.075a5.56,5.56,0,0,1,.21,2.143l-.072,4.009v.209a2.432,2.432,0,0,0,1.12,2.445l-1.654,1.912a3.361,3.361,0,0,1-1.678-1.446,5.758,5.758,0,0,1-.721.63,4.128,4.128,0,0,1-2.4.651c-2.656,0-4.1-1.35-4.1-3.727,0-2.8,1.932-4.1,5.732-4.1.231,0,.441,0,.7.023v-.488c0-1.329-.256-1.772-1.4-1.772a6.586,6.586,0,0,0-3.449,1.351l-1.327-2.236A11.419,11.419,0,0,1,292.492,337.85Zm4.054,6.266c-2.167,0-2.913.4-2.913,1.818a1.413,1.413,0,0,0,1.376,1.56,2.262,2.262,0,0,0,1.63-.814l.047-2.565Z" transform="translate(-276.252 -332.654)" fill="#005a54"/>
                <path id="Caminho_3529" data-name="Caminho 3529" d="M328.886,337.018a3.038,3.038,0,0,1,.443,1.492,13.708,13.708,0,0,1,1.375-.886,4.916,4.916,0,0,1,2.144-.512,2.967,2.967,0,0,1,2.866,1.724,4.837,4.837,0,0,1,.233,1.7v8.716h-3.077v-7.76c0-1.351-.233-1.747-1.048-1.747a3.635,3.635,0,0,0-2.167,1.071v8.436h-3.121v-8.644a8.64,8.64,0,0,0-.42-2.8Z" transform="translate(-299.693 -332.568)" fill="#005a54"/>
                <path id="Caminho_3530" data-name="Caminho 3530" d="M366.193,333.2h-2v5.988c0,1.515.28,1.912,1.35,1.912a4.129,4.129,0,0,0,1.12-.232l.4,1.863a6.543,6.543,0,0,1-2.538.536,3.23,3.23,0,0,1-3.218-1.748,4.406,4.406,0,0,1-.207-1.841V333.2H359.9v-2.143h1.19a20.747,20.747,0,0,1,.116-2.817l3.168-.793c-.115,1.1-.186,2.4-.186,3.611h2.8Z" transform="translate(-321.809 -326.3)" fill="#005a54"/>
                <path id="Caminho_3531" data-name="Caminho 3531" d="M386.376,337.85a8.067,8.067,0,0,1,3.263-.7c2,0,3.378.746,3.845,2.075a5.6,5.6,0,0,1,.21,2.143l-.07,4.009v.209a2.431,2.431,0,0,0,1.117,2.445l-1.654,1.912a3.363,3.363,0,0,1-1.679-1.446,5.656,5.656,0,0,1-.721.63,4.127,4.127,0,0,1-2.4.651c-2.657,0-4.1-1.35-4.1-3.727,0-2.8,1.934-4.1,5.731-4.1.233,0,.443,0,.7.023v-.488c0-1.329-.257-1.772-1.4-1.772a6.581,6.581,0,0,0-3.448,1.351l-1.327-2.236A11.4,11.4,0,0,1,386.376,337.85Zm4.053,6.266c-2.166,0-2.911.4-2.911,1.818a1.413,1.413,0,0,0,1.374,1.56,2.261,2.261,0,0,0,1.631-.814l.047-2.565Z" transform="translate(-337.704 -332.654)" fill="#005a54"/>
                <path id="Caminho_3532" data-name="Caminho 3532" d="M436.245,325.552V338.6a11.19,11.19,0,0,1-.233,3.168,5.9,5.9,0,0,1-3.775,3.8l-1.515-1.677a5.009,5.009,0,0,0,1.888-1.958,7.323,7.323,0,0,0,.326-2.982v-13.4Z" transform="translate(-368.165 -325.063)" fill="#005a54"/>
                <path id="Caminho_3533" data-name="Caminho 3533" d="M463.876,339.015a6.193,6.193,0,0,1,1.376,4.356,6.463,6.463,0,0,1-1.492,4.612,4.867,4.867,0,0,1-3.938,1.655c-3.238,0-5.359-2.422-5.359-6.173s2.143-6.245,5.359-6.245A5,5,0,0,1,463.876,339.015Zm-5.614,1.724a11.286,11.286,0,0,0,.07,5.659,1.726,1.726,0,0,0,1.585.979c1.351,0,1.933-1.209,1.933-4.029a5.544,5.544,0,0,0-.629-3.192,1.707,1.707,0,0,0-2.958.583Z" transform="translate(-383.704 -332.7)" fill="#005a54"/>
                <path id="Caminho_3534" data-name="Caminho 3534" d="M492.538,337.85a8.069,8.069,0,0,1,3.261-.7c2,0,3.377.746,3.844,2.075a5.468,5.468,0,0,1,.209,2.143l-.069,4.009v.209a2.435,2.435,0,0,0,1.119,2.445l-1.653,1.912a3.343,3.343,0,0,1-1.677-1.446,5.814,5.814,0,0,1-.724.63,4.119,4.119,0,0,1-2.4.651c-2.656,0-4.1-1.35-4.1-3.727,0-2.8,1.935-4.1,5.731-4.1.233,0,.444,0,.7.023v-.488c0-1.329-.256-1.772-1.4-1.772a6.585,6.585,0,0,0-3.449,1.351l-1.329-2.236A11.512,11.512,0,0,1,492.538,337.85Zm4.053,6.266c-2.167,0-2.914.4-2.914,1.818a1.414,1.414,0,0,0,1.376,1.56,2.263,2.263,0,0,0,1.631-.814l.046-2.565Z" transform="translate(-407.193 -332.654)" fill="#005a54"/>
                <path id="Caminho_3535" data-name="Caminho 3535" d="M528.932,337.018a3.05,3.05,0,0,1,.443,1.492,13.779,13.779,0,0,1,1.374-.886,4.906,4.906,0,0,1,2.143-.512,2.966,2.966,0,0,1,2.867,1.724,4.8,4.8,0,0,1,.233,1.7v8.717h-3.076v-7.76c0-1.351-.233-1.747-1.048-1.747a3.638,3.638,0,0,0-2.167,1.071v8.436h-3.123v-8.644a8.63,8.63,0,0,0-.42-2.8Z" transform="translate(-430.633 -332.568)" fill="#005a54"/>
                <path id="Caminho_3536" data-name="Caminho 3536" d="M563.893,337.85a8.077,8.077,0,0,1,3.262-.7c2.005,0,3.379.746,3.845,2.075a5.5,5.5,0,0,1,.209,2.143l-.07,4.009v.209a2.433,2.433,0,0,0,1.12,2.445l-1.655,1.912a3.357,3.357,0,0,1-1.677-1.446,5.674,5.674,0,0,1-.722.63,4.127,4.127,0,0,1-2.4.651c-2.656,0-4.1-1.35-4.1-3.727,0-2.8,1.936-4.1,5.733-4.1.233,0,.44,0,.7.023v-.488c0-1.329-.258-1.772-1.4-1.772a6.587,6.587,0,0,0-3.449,1.351l-1.327-2.236A11.406,11.406,0,0,1,563.893,337.85Zm4.055,6.266c-2.166,0-2.912.4-2.912,1.818a1.414,1.414,0,0,0,1.375,1.56,2.259,2.259,0,0,0,1.63-.814l.047-2.565Z" transform="translate(-453.898 -332.654)" fill="#005a54"/>
              </g>
            </g>
          </g>
        </g>
      </g>
      <g id="Grupo_1959" data-name="Grupo 1959" transform="translate(1.425 108.391)">
        <g id="Grupo_1958" data-name="Grupo 1958">
          <path id="Caminho_3537" data-name="Caminho 3537" d="M256.09,447.079a2.27,2.27,0,0,1-2.334-2.516c0-1.9,1.167-3.939,3.229-3.939a2.27,2.27,0,0,1,2.334,2.516C259.318,445.041,258.151,447.079,256.09,447.079Zm.852-5.857c-1.7,0-2.283,1.926-2.283,3.358,0,.954.4,1.9,1.474,1.9,1.7,0,2.283-1.927,2.283-3.358C258.415,442.168,258.015,441.223,256.942,441.223Z" transform="translate(-253.756 -440.39)" fill="#388886"/>
          <path id="Caminho_3538" data-name="Caminho 3538" d="M286.272,446.648l-.409,2.264a1.849,1.849,0,0,0-.026.217.233.233,0,0,0,.238.251.348.348,0,0,0,.162-.043l.034.035a.648.648,0,0,1-.647.555.562.562,0,0,1-.613-.6,2.022,2.022,0,0,1,.034-.321l.409-2.265a1.9,1.9,0,0,0,.043-.382c0-.3-.145-.486-.443-.486-.486,0-.937.573-1.465,1.276l-.46,2.707h-.8l.537-3.115a2.828,2.828,0,0,0,.042-.382c0-.3-.145-.486-.443-.486-.485,0-.937.573-1.465,1.276l-.46,2.707h-.8l.792-4.6h.775l-.188,1.1h.017c.417-.581.954-1.24,1.686-1.24a.885.885,0,0,1,.911.963c0,.1-.017.182-.026.277h.017c.417-.581.954-1.24,1.686-1.24a.892.892,0,0,1,.92.963A3.074,3.074,0,0,1,286.272,446.648Z" transform="translate(-270.763 -443.334)" fill="#388886"/>
          <path id="Caminho_3539" data-name="Caminho 3539" d="M303,447.724c-.008.113-.017.226-.017.338a1.206,1.206,0,0,0,1.3,1.31,1.363,1.363,0,0,0,.954-.4l.06.043a.425.425,0,0,1,.009.1c0,.685-.767.876-1.3.876a1.748,1.748,0,0,1-1.806-1.892c0-1.492.945-2.984,2.419-2.984a1.121,1.121,0,0,1,1.252,1.058C305.868,447.524,303.977,447.724,303,447.724Zm1.389-2.039c-.775,0-1.244.833-1.337,1.527.639,0,1.993-.017,1.993-.937A.619.619,0,0,0,304.386,445.684Z" transform="translate(-285.463 -443.334)" fill="#388886"/>
          <path id="Caminho_3540" data-name="Caminho 3540" d="M316.78,445.558a1.829,1.829,0,0,0-.026.217.232.232,0,0,0,.238.252.347.347,0,0,0,.162-.043l.034.034a.647.647,0,0,1-.647.555.562.562,0,0,1-.613-.6,2.061,2.061,0,0,1,.034-.321l.98-5.657h.8Z" transform="translate(-294.451 -439.98)" fill="#388886"/>
          <path id="Caminho_3541" data-name="Caminho 3541" d="M327.39,443.294l-.409,2.264a1.929,1.929,0,0,0-.025.217.233.233,0,0,0,.239.252.348.348,0,0,0,.162-.043l.034.034a.647.647,0,0,1-.647.555.562.562,0,0,1-.613-.6,2.054,2.054,0,0,1,.034-.321l.409-2.265a1.881,1.881,0,0,0,.042-.382c0-.3-.145-.486-.443-.486-.486,0-.937.573-1.465,1.276l-.46,2.707h-.8L324.57,440h.8l-.52,2.993h.009c.417-.581.937-1.223,1.67-1.223a.892.892,0,0,1,.92.963A3.11,3.11,0,0,1,327.39,443.294Z" transform="translate(-299.372 -439.98)" fill="#388886"/>
          <path id="Caminho_3542" data-name="Caminho 3542" d="M339.935,449.989a1.518,1.518,0,0,1-1.525-1.709c0-1.432.8-3.21,2.419-3.21a1.518,1.518,0,0,1,1.525,1.709C342.354,448.211,341.553,449.989,339.935,449.989Zm.7-4.373c-1.116,0-1.4,1.744-1.4,2.646,0,.59.221,1.18.894,1.18,1.116,0,1.4-1.744,1.4-2.646C341.528,446.206,341.306,445.617,340.633,445.617Z" transform="translate(-309.167 -443.3)" fill="#388886"/>
          <path id="Caminho_3543" data-name="Caminho 3543" d="M355.721,446.006a.684.684,0,0,0-.264-.052c-.554,0-1.1.772-1.423,1.171l-.477,2.733h-.8l.639-3.653a1.848,1.848,0,0,0,.026-.217.222.222,0,0,0-.23-.251.35.35,0,0,0-.162.043l-.034-.035a.622.622,0,0,1,.622-.555.524.524,0,0,1,.562.6,3.948,3.948,0,0,1-.076.625h.026c.358-.556.869-1.293,1.593-1.293a.883.883,0,0,1,.213.026Z" transform="translate(-318.558 -443.334)" fill="#388886"/>
          <path id="Caminho_3544" data-name="Caminho 3544" d="M373.694,445.558a1.929,1.929,0,0,0-.026.217.224.224,0,0,0,.239.252.349.349,0,0,0,.162-.043l.034.034a.634.634,0,0,1-.647.555.539.539,0,0,1-.588-.6,2.588,2.588,0,0,1,.085-.572h-.017c-.384.529-.988,1.241-1.7,1.241-.784,0-1.031-.911-1.031-1.562,0-1.883,1.048-3.245,2.973-3.245.119,0,.23,0,.349.009l.324-1.848h.8Zm-.86-3.141c-1.295,0-1.746,1.293-1.746,2.4,0,.382.077,1.015.571,1.015.477,0,1.116-.833,1.388-1.189l.375-2.16A2.728,2.728,0,0,0,372.834,442.417Z" transform="translate(-329.982 -439.98)" fill="#388886"/>
          <path id="Caminho_3545" data-name="Caminho 3545" d="M388.59,449.043a1.929,1.929,0,0,0-.026.217.224.224,0,0,0,.238.251.349.349,0,0,0,.162-.043l.034.035a.634.634,0,0,1-.647.556.539.539,0,0,1-.588-.6,2.586,2.586,0,0,1,.085-.572h-.017c-.367.521-.963,1.241-1.653,1.241-.766,0-1-.929-1-1.562,0-1.883,1.048-3.245,2.973-3.245a7.315,7.315,0,0,1,1.073.07Zm-.8-3.141c-1.235,0-1.738,1.215-1.738,2.4,0,.373.077,1.015.562,1.015.443,0,1.082-.85,1.329-1.189l.375-2.16A2.058,2.058,0,0,0,387.789,445.9Z" transform="translate(-339.776 -443.465)" fill="#388886"/>
          <path id="Caminho_3546" data-name="Caminho 3546" d="M408.769,450.128a1.616,1.616,0,0,1-.536-.087l-.256-4.65h.809l.17,4.043a1.254,1.254,0,0,0,.179.017c1.039,0,1.491-1.779,1.491-2.638,0-.243-.034-.894-.375-.894a.36.36,0,0,0-.188.052l-.043-.026a.551.551,0,0,1,.571-.625c.6,0,.758.634.758,1.128C411.35,447.759,410.677,450.128,408.769,450.128Z" transform="translate(-354.702 -443.465)" fill="#388886"/>
          <path id="Caminho_3547" data-name="Caminho 3547" d="M421.8,445.526a1.869,1.869,0,0,0-.026.217.232.232,0,0,0,.238.251.348.348,0,0,0,.162-.043l.035.034a.648.648,0,0,1-.648.556.562.562,0,0,1-.613-.6,2.051,2.051,0,0,1,.034-.321l.647-3.748h.8Zm.4-4.6a.371.371,0,0,1-.383-.373.56.56,0,0,1,.562-.607.37.37,0,0,1,.383.373A.561.561,0,0,1,422.2,440.927Z" transform="translate(-363.19 -439.947)" fill="#388886"/>
          <path id="Caminho_3548" data-name="Caminho 3548" d="M431.773,445.558a1.842,1.842,0,0,0-.026.217.224.224,0,0,0,.238.252.348.348,0,0,0,.162-.043l.034.034a.634.634,0,0,1-.648.555.539.539,0,0,1-.588-.6,2.592,2.592,0,0,1,.085-.572h-.017c-.383.529-.988,1.241-1.7,1.241-.784,0-1.031-.911-1.031-1.562,0-1.883,1.048-3.245,2.972-3.245.12,0,.23,0,.35.009l.324-1.848h.8Zm-.86-3.141c-1.295,0-1.747,1.293-1.747,2.4,0,.382.077,1.015.571,1.015.477,0,1.116-.833,1.389-1.189l.375-2.16A2.734,2.734,0,0,0,430.913,442.417Z" transform="translate(-367.997 -439.98)" fill="#388886"/>
          <path id="Caminho_3549" data-name="Caminho 3549" d="M446.669,449.043a1.909,1.909,0,0,0-.026.217.224.224,0,0,0,.239.251.351.351,0,0,0,.162-.043l.034.035a.634.634,0,0,1-.647.556.539.539,0,0,1-.588-.6,2.586,2.586,0,0,1,.085-.572h-.017c-.366.521-.963,1.241-1.653,1.241-.767,0-1-.929-1-1.562,0-1.883,1.047-3.245,2.973-3.245a7.31,7.31,0,0,1,1.073.07Zm-.8-3.141c-1.235,0-1.737,1.215-1.737,2.4,0,.373.077,1.015.562,1.015.443,0,1.082-.85,1.329-1.189l.374-2.16A2.056,2.056,0,0,0,445.868,445.9Z" transform="translate(-377.793 -443.465)" fill="#388886"/>
          <path id="Caminho_3550" data-name="Caminho 3550" d="M469.624,446.648l-.409,2.264a1.856,1.856,0,0,0-.026.217.232.232,0,0,0,.238.251.346.346,0,0,0,.162-.043l.035.035a.648.648,0,0,1-.648.555.562.562,0,0,1-.614-.6,2.052,2.052,0,0,1,.035-.321l.409-2.265a1.921,1.921,0,0,0,.043-.382.427.427,0,0,0-.46-.486c-.5,0-.971.573-1.516,1.276l-.46,2.707h-.8l.793-4.6h.774l-.187,1.1h.026c.434-.581.988-1.24,1.746-1.24a.892.892,0,0,1,.92.963A3.142,3.142,0,0,1,469.624,446.648Z" transform="translate(-392.427 -443.334)" fill="#388886"/>
          <path id="Caminho_3551" data-name="Caminho 3551" d="M484.188,449.043a2,2,0,0,0-.026.217.224.224,0,0,0,.239.251.349.349,0,0,0,.162-.043l.034.035a.634.634,0,0,1-.647.556.539.539,0,0,1-.588-.6,2.586,2.586,0,0,1,.085-.572h-.017c-.367.521-.963,1.241-1.653,1.241-.767,0-1-.929-1-1.562,0-1.883,1.047-3.245,2.973-3.245a7.3,7.3,0,0,1,1.073.07Zm-.8-3.141c-1.235,0-1.738,1.215-1.738,2.4,0,.373.077,1.015.562,1.015.444,0,1.082-.85,1.329-1.189l.374-2.16A2.054,2.054,0,0,0,483.388,445.9Z" transform="translate(-402.351 -443.465)" fill="#388886"/>
          <path id="Caminho_3552" data-name="Caminho 3552" d="M497.4,445.966a1.8,1.8,0,0,0-.818-.173.665.665,0,0,0-.742.651c0,.72,1.4,1.032,1.4,2.16a1.442,1.442,0,0,1-1.6,1.449c-.4,0-1.039-.113-1.039-.642a1.108,1.108,0,0,1,.026-.234l.068-.035a1.55,1.55,0,0,0,1.022.338.725.725,0,0,0,.8-.677c0-.772-1.405-1.076-1.405-2.177a1.478,1.478,0,0,1,1.567-1.406,3.245,3.245,0,0,1,.912.113Z" transform="translate(-411.403 -443.399)" fill="#388886"/>
          <path id="Caminho_3553" data-name="Caminho 3553" d="M508.513,446.1a2.125,2.125,0,0,0-.834-.156c-1.039,0-1.567.92-1.567,2.317a1.171,1.171,0,0,0,1.176,1.25,1.221,1.221,0,0,0,.937-.373l.059.034a.409.409,0,0,1,.009.1c0,.685-.733.851-1.269.851a1.739,1.739,0,0,1-1.746-1.892,2.656,2.656,0,0,1,2.615-2.915,4.725,4.725,0,0,1,.852.07Z" transform="translate(-418.39 -443.465)" fill="#388886"/>
          <path id="Caminho_3554" data-name="Caminho 3554" d="M517.614,447.724c-.008.113-.017.226-.017.338a1.206,1.206,0,0,0,1.3,1.31,1.364,1.364,0,0,0,.954-.4l.059.043a.422.422,0,0,1,.009.1c0,.685-.767.876-1.3.876a1.748,1.748,0,0,1-1.806-1.892c0-1.492.946-2.984,2.419-2.984a1.121,1.121,0,0,1,1.252,1.058C520.485,447.524,518.594,447.724,517.614,447.724ZM519,445.684c-.775,0-1.243.833-1.337,1.527.639,0,1.993-.017,1.993-.937A.619.619,0,0,0,519,445.684Z" transform="translate(-425.942 -443.334)" fill="#388886"/>
          <path id="Caminho_3555" data-name="Caminho 3555" d="M540.69,449.043a2.025,2.025,0,0,0-.026.217.224.224,0,0,0,.239.251.35.35,0,0,0,.162-.043l.034.035a.634.634,0,0,1-.647.556.539.539,0,0,1-.588-.6,2.568,2.568,0,0,1,.085-.572h-.017c-.366.521-.963,1.241-1.653,1.241-.767,0-1-.929-1-1.562,0-1.883,1.047-3.245,2.973-3.245a7.3,7.3,0,0,1,1.073.07Zm-.8-3.141c-1.235,0-1.738,1.215-1.738,2.4,0,.373.077,1.015.562,1.015.444,0,1.082-.85,1.329-1.189l.374-2.16A2.053,2.053,0,0,0,539.89,445.9Z" transform="translate(-439.335 -443.465)" fill="#388886"/>
          <path id="Caminho_3556" data-name="Caminho 3556" d="M555.234,450.848a1.849,1.849,0,0,0-.026.217.233.233,0,0,0,.239.251.346.346,0,0,0,.162-.044l.034.035a.648.648,0,0,1-.647.555.562.562,0,0,1-.613-.6,2.065,2.065,0,0,1,.034-.321l.349-2.03h-.009c-.374.529-.963,1.215-1.661,1.215-.783,0-1.03-.911-1.03-1.562,0-1.883,1.047-3.245,2.973-3.245a9.9,9.9,0,0,1,1.133.078Zm-.545-4.946c-1.295,0-1.746,1.293-1.746,2.4,0,.382.077,1.015.571,1.015.477,0,1.116-.825,1.388-1.18l.375-2.169A2.732,2.732,0,0,0,554.689,445.9Z" transform="translate(-449.016 -443.465)" fill="#388886"/>
          <path id="Caminho_3557" data-name="Caminho 3557" d="M570.92,449.175a1.948,1.948,0,0,0-.025.217.224.224,0,0,0,.238.252.348.348,0,0,0,.162-.043l.034.035a.633.633,0,0,1-.647.556.539.539,0,0,1-.588-.6,2.891,2.891,0,0,1,.085-.572h-.026c-.417.581-.954,1.241-1.687,1.241a.892.892,0,0,1-.919-.963,3.1,3.1,0,0,1,.06-.564l.571-3.21h.8l-.554,3.115a1.871,1.871,0,0,0-.042.382c0,.3.145.486.443.486.485,0,.937-.572,1.465-1.275l.46-2.707h.8Z" transform="translate(-459.15 -443.596)" fill="#388886"/>
          <path id="Caminho_3558" data-name="Caminho 3558" d="M583.732,445.526a1.951,1.951,0,0,0-.025.217.232.232,0,0,0,.238.251.351.351,0,0,0,.162-.043l.033.034a.646.646,0,0,1-.647.556.562.562,0,0,1-.613-.6,2.088,2.088,0,0,1,.034-.321l.648-3.748h.8Zm.4-4.6a.371.371,0,0,1-.383-.373.56.56,0,0,1,.562-.607.37.37,0,0,1,.383.373A.561.561,0,0,1,584.133,440.927Z" transform="translate(-469.186 -439.947)" fill="#388886"/>
        </g>
      </g>
      <rect id="Retângulo_1051" data-name="Retângulo 1051" width="117.252" height="0.522" transform="translate(0.554 103.126)" fill="#005a54"/>
    </g>
  </g>
</svg>
