<?xml version="1.0" encoding="UTF-8"?>
<svg id="Camada_1" data-name="Camada 1" xmlns="http://www.w3.org/2000/svg" xmlns:xlink="http://www.w3.org/1999/xlink" viewBox="0 0 896.86 643.43">
  <defs>
    <style>
      .cls-1 {
        fill: #4b514f;
      }

      .cls-2 {
        fill: url(#Gradiente_sem_nome_35);
      }
    </style>
    <linearGradient id="Gradiente_sem_nome_35" data-name="Gradiente sem nome 35" x1="357.78" y1="206.04" x2="561.01" y2="206.04" gradientUnits="userSpaceOnUse">
      <stop offset="0" stop-color="#465866"/>
      <stop offset=".52" stop-color="#5c6f7e"/>
      <stop offset="1" stop-color="#2d3945"/>
    </linearGradient>
  </defs>
  <g>
    <path d="m34.78,489.94h.02c13.45.2,17.41,9.05,16.22,15.97l-2.35.14c.98-5.72-1.97-13.59-14.44-13.78-5.38,0-10.07,1.34-13.62,3.66-3.55,2.33-6.02,5.61-7.1,9.89-1.23,5.56.2,8.96,3.06,11.6,2.86,2.64,7.25,4.38,11.73,6.09s9.05,3.4,12.24,6.21c3.19,2.8,4.92,6.88,3.51,12.81-1.23,6.25-9.74,15.9-25.08,15.9-5.83,0-11.21-1.91-14.76-5.45-3.55-3.54-5.24-8.8-3.56-15.23l2.31.07c-1.49,5.7-.04,10.19,3.13,13.35s8.09,4.93,13.41,4.93c14.38,0,21.31-8.93,22.21-13.5v-.02s.01-.02.01-.02c1.26-5.28-.14-8.45-2.99-10.96-2.85-2.5-7.23-4.18-11.72-5.9-4.49-1.72-9.07-3.48-12.28-6.43-3.21-2.96-4.94-7.23-3.56-13.45v-.02s0-.02,0-.02c1.23-4.9,4.26-8.97,8.42-11.69,4.16-2.73,9.4-4.15,15.16-4.15Z"/>
    <path d="m90.92,491.13h2.18l9.26,67.3h-2.48l-2.65-19.28h-32.61l-11.55,19.28h-2.48l40.33-67.3Zm.22,3.76l-25.13,41.93h30.9l-5.77-41.93Z"/>
    <path d="m132.65,491.53h2.56l27.48,63.06,14.56-63.06h2.32l-15.44,66.9h-2.56l-27.48-63.06-14.56,63.06h-2.32l15.44-66.9Z"/>
    <path d="m194.54,491.07h18.63c10.8,0,18.07,4.23,22.06,10.57,3.99,6.34,4.75,14.74,2.82,23.12-1.93,8.38-6.57,16.78-13.49,23.11s-16.14,10.57-26.94,10.57h-18.63l15.28-66.2.27-1.16Zm1.79,2.32l-14.48,62.71h16.31c10.2,0,18.6-3.9,25-9.76,6.39-5.86,10.76-13.72,12.58-21.6,1.82-7.88,1.08-15.74-2.61-21.6s-10.29-9.76-20.49-9.76h-16.31Z"/>
    <path d="m260.64,491.3h15.66c7.43,0,12.53,2.65,15.4,6.66,2.87,4.01,3.53,9.34,2.3,14.66-1.23,5.31-4.34,10.64-9.07,14.66-2.54,2.16-5.55,3.92-8.94,5.09l11.9,26.06h-2.82l-11.57-25.33c-2.22.54-4.58.84-7.06.84h-13.33l-5.65,24.49h-2.32l15.5-67.13Zm1.79,2.32l-8.77,37.99h13.33c6.88,0,12.45-2.39,16.62-5.94,4.17-3.54,6.96-8.29,8.06-13.06,1.1-4.76.5-9.51-2.03-13.06-2.54-3.55-7-5.94-13.88-5.94h-13.33Z"/>
    <path d="m344.71,490.58c17.68,0,28.46,15.24,24.14,33.92-4.31,18.68-22.12,33.92-39.81,33.92s-28.45-15.24-24.14-33.92c4.31-18.69,22.12-33.92,39.81-33.92Zm-.54,2.32c-16.35,0-32.9,14.1-36.95,31.6-4.04,17.5,6.01,31.6,22.35,31.6s32.9-14.1,36.95-31.6c4.04-17.5-6-31.6-22.35-31.6Z"/>
    <path d="m470.57,491.19c9.36,0,16.87,4.04,21.34,10.51l-2.01,1.63c-4.15-6.05-11.14-9.82-19.86-9.82-16.79,0-33.64,13.98-37.64,31.3-4,17.31,6.4,31.29,23.19,31.29,3.65,0,6.4-.34,10.75-1.28,3.08-.77,6.7-1.91,12.09-3.29l5.06-21.93h-24.85l.54-2.32h27.18l-6.01,26.02-.92.23c-5.88,1.48-9.61,2.68-13.01,3.53-3.35.83-7.58,1.33-11.37,1.36-18.08,0-29.25-15.08-24.97-33.62s22.41-33.62,40.5-33.62Z"/>
    <path d="m495.73,554.71l-.86,3.72h-3.72l.86-3.72h3.72Z"/>
    <path d="m568.84,491.53h2.32l-8.7,37.67h38.56l8.7-37.67h2.32l-15.44,66.9h-2.32l6.21-26.9h-38.56l-6.21,26.9h-2.32l15.44-66.9Z"/>
    <path d="m626.91,491.53h2.32l-15.44,66.9h-2.32l15.44-66.9Z"/>
    <path d="m644.15,491.31h2.31l-14.96,64.81h39.73l-.53,2.31h-42.03l15.5-67.12Z"/>
    <path d="m737.28,558.43h-2.48l-2.65-19.28h-32.61l-11.55,19.28h-2.48l40.33-67.3h2.18l9.26,67.3Zm-36.35-21.6h30.9l-5.77-41.93-25.13,41.93Zm38.38-63.47l-13.72,11.15-1.26-1.64,13.72-11.15,1.26,1.64Z"/>
    <path d="m767.62,491.3h15.66c7.43,0,12.53,2.65,15.4,6.66,2.87,4.01,3.53,9.34,2.3,14.66-1.23,5.31-4.34,10.64-9.07,14.66-2.54,2.16-5.54,3.92-8.93,5.09l11.9,26.06h-2.82l-11.57-25.33c-2.22.54-4.58.84-7.06.84h-13.33l-5.65,24.49h-2.32l15.5-67.13Zm1.79,2.32l-8.77,37.99h13.33c6.88,0,12.45-2.39,16.62-5.94,4.17-3.54,6.96-8.29,8.06-13.06,1.1-4.76.5-9.51-2.03-13.06-2.54-3.55-7-5.94-13.88-5.94h-13.33Z"/>
    <path d="m825.17,491.53h2.32l-15.44,66.9h-2.32l15.44-66.9Z"/>
    <path d="m871.77,490.58c17.68,0,28.45,15.24,24.14,33.92-4.31,18.68-22.12,33.92-39.8,33.92s-28.46-15.24-24.14-33.92c4.31-18.69,22.12-33.92,39.81-33.92Zm-.54,2.32c-16.35,0-32.91,14.1-36.95,31.6-4.04,17.5,6,31.6,22.35,31.6s32.91-14.1,36.95-31.6c4.04-17.5-6.01-31.6-22.35-31.6Z"/>
  </g>
  <g>
    <path d="m208.05,632.24c-3,0-5.77-.51-8.3-1.53-2.54-1.02-4.75-2.45-6.63-4.29-1.88-1.85-3.34-4-4.38-6.46-1.04-2.46-1.56-5.15-1.56-8.07s.52-5.61,1.56-8.07c1.04-2.46,2.5-4.61,4.38-6.46,1.88-1.84,4.09-3.28,6.63-4.29,2.54-1.02,5.31-1.53,8.3-1.53,2.73,0,5.29.42,7.7,1.27,2.4.85,4.47,2.13,6.2,3.86l-.69.81c-1.84-1.77-3.87-3.02-6.08-3.75-2.21-.73-4.58-1.1-7.12-1.1-2.81,0-5.41.49-7.81,1.47-2.4.98-4.5,2.35-6.28,4.09-1.79,1.75-3.17,3.79-4.15,6.11-.98,2.33-1.47,4.85-1.47,7.58s.49,5.26,1.47,7.58c.98,2.33,2.36,4.36,4.15,6.11,1.79,1.75,3.88,3.11,6.28,4.09,2.4.98,5.01,1.47,7.81,1.47,2.54,0,4.93-.38,7.18-1.15,2.25-.77,4.26-2.04,6.03-3.81l.69.87c-1.73,1.73-3.8,3.03-6.2,3.89-2.4.86-4.97,1.3-7.7,1.3Zm12.8-5.19v-14.76h1.1v14.76h-1.1Z"/>
    <path d="m235.61,594.01c-.38,0-.73-.15-1.04-.46-.31-.31-.46-.65-.46-1.04,0-.42.15-.78.46-1.07.31-.29.65-.43,1.04-.43.42,0,.78.14,1.07.43.29.29.43.64.43,1.07,0,.38-.14.73-.43,1.04-.29.31-.64.46-1.07.46Zm-.58,38.06v-29.81h1.15v29.81h-1.15Z"/>
    <path d="m263.12,602.09c2.46,0,4.57.47,6.34,1.41,1.77.94,3.14,2.33,4.12,4.18.98,1.85,1.47,4.11,1.47,6.8v17.59h-1.15v-17.59c0-3.69-.94-6.5-2.83-8.42-1.88-1.92-4.52-2.88-7.9-2.88-2.61,0-4.86.53-6.75,1.59-1.88,1.06-3.33,2.54-4.32,4.44-1,1.9-1.5,4.12-1.5,6.66v16.2h-1.15v-29.81h1.15v8.48l-.12-.17c.88-2.61,2.4-4.68,4.56-6.2,2.15-1.52,4.84-2.28,8.07-2.28Z"/>
    <path d="m299.33,632.24c-2.88,0-5.44-.64-7.67-1.93-2.23-1.29-3.99-3.08-5.28-5.36-1.29-2.29-1.93-4.89-1.93-7.81s.6-5.56,1.79-7.81c1.19-2.25,2.83-4.02,4.93-5.3,2.09-1.29,4.45-1.93,7.06-1.93s4.97.62,7.06,1.87c2.09,1.25,3.75,2.99,4.96,5.22,1.21,2.23,1.82,4.79,1.82,7.67v.29h-26.98v-1.1h26.35l-.46.86c0-2.61-.56-4.96-1.67-7.03-1.12-2.08-2.62-3.71-4.53-4.9-1.9-1.19-4.08-1.79-6.54-1.79s-4.59.6-6.52,1.79c-1.92,1.19-3.43,2.83-4.53,4.9s-1.64,4.42-1.64,7.03v.23c0,2.73.6,5.15,1.79,7.26,1.19,2.11,2.83,3.77,4.9,4.96s4.44,1.79,7.09,1.79c2,0,3.89-.38,5.68-1.15,1.79-.77,3.28-1.92,4.47-3.46l.81.81c-1.31,1.62-2.92,2.84-4.84,3.66-1.92.83-3.96,1.24-6.11,1.24Z"/>
    <path d="m332.94,632.24c-2.81,0-5.31-.64-7.52-1.93-2.21-1.29-3.95-3.06-5.22-5.33s-1.9-4.88-1.9-7.84.63-5.57,1.9-7.84,3.01-4.04,5.22-5.31c2.21-1.27,4.72-1.9,7.52-1.9,2.15,0,4.16.4,6.03,1.21,1.86.81,3.43,2.02,4.7,3.63l-.81.86c-1.15-1.58-2.59-2.74-4.32-3.49-1.73-.75-3.59-1.12-5.59-1.12-2.58,0-4.88.59-6.92,1.76-2.04,1.17-3.64,2.81-4.81,4.9-1.17,2.1-1.76,4.53-1.76,7.29s.59,5.2,1.76,7.29c1.17,2.1,2.78,3.74,4.81,4.93,2.04,1.19,4.34,1.79,6.92,1.79,2,0,3.86-.38,5.59-1.15,1.73-.77,3.17-1.92,4.32-3.46l.81.86c-1.27,1.62-2.84,2.83-4.7,3.63-1.86.81-3.87,1.21-6.03,1.21Z"/>
    <path d="m363.62,632.24c-2.77,0-5.24-.64-7.41-1.93-2.17-1.29-3.89-3.08-5.16-5.36-1.27-2.29-1.9-4.89-1.9-7.81s.63-5.56,1.9-7.81,2.99-4.02,5.16-5.3c2.17-1.29,4.64-1.93,7.41-1.93s5.25.64,7.44,1.93c2.19,1.29,3.91,3.06,5.16,5.3,1.25,2.25,1.87,4.85,1.87,7.81s-.62,5.53-1.87,7.81c-1.25,2.29-2.97,4.08-5.16,5.36-2.19,1.29-4.67,1.93-7.44,1.93Zm0-1.1c2.54,0,4.81-.6,6.83-1.79,2.02-1.19,3.6-2.84,4.76-4.96,1.15-2.11,1.73-4.54,1.73-7.26s-.58-5.2-1.73-7.29c-1.15-2.09-2.74-3.73-4.76-4.9-2.02-1.17-4.3-1.76-6.83-1.76s-4.81.59-6.8,1.76c-2,1.17-3.58,2.81-4.76,4.9-1.17,2.1-1.76,4.53-1.76,7.29s.59,5.15,1.76,7.26c1.17,2.11,2.76,3.77,4.76,4.96,2,1.19,4.27,1.79,6.8,1.79Z"/>
    <path d="m387.84,632.07v-42.78h1.15v42.78h-1.15Z"/>
    <path d="m413.21,632.24c-2.77,0-5.24-.64-7.41-1.93-2.17-1.29-3.89-3.08-5.16-5.36-1.27-2.29-1.9-4.89-1.9-7.81s.63-5.56,1.9-7.81,2.99-4.02,5.16-5.3c2.17-1.29,4.64-1.93,7.41-1.93s5.25.64,7.44,1.93c2.19,1.29,3.91,3.06,5.16,5.3,1.25,2.25,1.87,4.85,1.87,7.81s-.62,5.53-1.87,7.81c-1.25,2.29-2.97,4.08-5.16,5.36-2.19,1.29-4.67,1.93-7.44,1.93Zm0-1.1c2.54,0,4.81-.6,6.83-1.79,2.02-1.19,3.6-2.84,4.76-4.96,1.15-2.11,1.73-4.54,1.73-7.26s-.58-5.2-1.73-7.29c-1.15-2.09-2.74-3.73-4.76-4.9-2.02-1.17-4.3-1.76-6.83-1.76s-4.81.59-6.8,1.76c-2,1.17-3.58,2.81-4.76,4.9-1.17,2.1-1.76,4.53-1.76,7.29s.59,5.15,1.76,7.26c1.17,2.11,2.76,3.77,4.76,4.96,2,1.19,4.27,1.79,6.8,1.79Z"/>
    <path d="m448.55,631.09c-2.77,0-5.26-.62-7.47-1.87-2.21-1.25-3.96-2.97-5.25-5.16-1.29-2.19-1.93-4.69-1.93-7.5s.64-5.35,1.93-7.52c1.29-2.17,3.04-3.87,5.25-5.1,2.21-1.23,4.7-1.84,7.47-1.84s5.29.62,7.47,1.84c2.17,1.23,3.88,2.93,5.13,5.1,1.25,2.17,1.87,4.68,1.87,7.52s-.62,5.3-1.87,7.5c-1.25,2.19-2.96,3.91-5.13,5.16-2.17,1.25-4.66,1.87-7.47,1.87Zm0-1.1c2.61,0,4.93-.57,6.95-1.7s3.61-2.72,4.79-4.76c1.17-2.04,1.76-4.36,1.76-6.98s-.59-4.98-1.76-6.98c-1.17-2-2.77-3.57-4.79-4.7s-4.33-1.7-6.95-1.7-4.88.57-6.92,1.7c-2.04,1.13-3.64,2.7-4.81,4.7-1.17,2-1.76,4.32-1.76,6.98s.59,4.94,1.76,6.98c1.17,2.04,2.78,3.62,4.81,4.76,2.04,1.13,4.34,1.7,6.92,1.7Zm.87,13.44c-2.69,0-5.21-.44-7.55-1.33-2.35-.88-4.23-2.1-5.65-3.63l.81-.81c1.54,1.5,3.36,2.65,5.48,3.46,2.11.81,4.42,1.21,6.92,1.21,4.3,0,7.49-1.02,9.54-3.06,2.06-2.04,3.08-5.27,3.08-9.69v-9.57l.58-3.46-.58-3.46v-10.84h1.15v27.16c0,4.8-1.14,8.34-3.43,10.61-2.29,2.27-5.74,3.4-10.35,3.4Z"/>
    <path d="m477.04,594.01c-.38,0-.73-.15-1.04-.46-.31-.31-.46-.65-.46-1.04,0-.42.15-.78.46-1.07.31-.29.65-.43,1.04-.43.42,0,.78.14,1.07.43.29.29.43.64.43,1.07,0,.38-.14.73-.43,1.04-.29.31-.64.46-1.07.46Zm-.58,38.06v-29.81h1.15v29.81h-1.15Z"/>
    <path d="m498.54,632.24c-2.23,0-4.13-.35-5.71-1.04-1.58-.69-2.78-1.67-3.6-2.94-.83-1.27-1.24-2.73-1.24-4.38,0-1.42.34-2.74,1.01-3.95.67-1.21,1.78-2.19,3.32-2.94,1.54-.75,3.63-1.12,6.29-1.12h11.94v1.09h-11.99c-3.38,0-5.79.64-7.24,1.93-1.44,1.29-2.16,2.93-2.16,4.93,0,2.23.83,4.01,2.48,5.33,1.65,1.33,3.96,1.99,6.92,1.99s5.26-.66,7.12-1.99c1.86-1.33,3.28-3.2,4.24-5.62l.58.75c-.81,2.38-2.22,4.31-4.24,5.77-2.02,1.46-4.58,2.19-7.7,2.19Zm11.36-.17v-19.49c0-3.11-.81-5.46-2.42-7.03-1.61-1.58-3.96-2.36-7.03-2.36-2.23,0-4.27.38-6.11,1.15-1.84.77-3.42,1.77-4.73,3l-.81-.81c1.42-1.34,3.15-2.42,5.19-3.23,2.04-.81,4.17-1.21,6.4-1.21,3.46,0,6.1.88,7.93,2.65,1.83,1.77,2.74,4.36,2.74,7.78v19.55h-1.15Z"/>
    <path d="m549.74,632.24c-2.88,0-5.44-.64-7.67-1.93-2.23-1.29-3.99-3.08-5.28-5.36-1.29-2.29-1.93-4.89-1.93-7.81s.59-5.56,1.79-7.81c1.19-2.25,2.83-4.02,4.93-5.3,2.09-1.29,4.45-1.93,7.06-1.93s4.97.62,7.06,1.87c2.09,1.25,3.75,2.99,4.96,5.22,1.21,2.23,1.82,4.79,1.82,7.67v.29h-26.99v-1.1h26.35l-.46.86c0-2.61-.56-4.96-1.67-7.03s-2.62-3.71-4.53-4.9c-1.9-1.19-4.08-1.79-6.54-1.79s-4.59.6-6.52,1.79c-1.92,1.19-3.43,2.83-4.53,4.9s-1.64,4.42-1.64,7.03v.23c0,2.73.6,5.15,1.79,7.26,1.19,2.11,2.83,3.77,4.9,4.96,2.08,1.19,4.44,1.79,7.09,1.79,2,0,3.89-.38,5.68-1.15,1.79-.77,3.28-1.92,4.47-3.46l.81.81c-1.31,1.62-2.92,2.84-4.84,3.66-1.92.83-3.96,1.24-6.11,1.24Z"/>
    <path d="m604.12,632.24c-2.96,0-5.7-.51-8.22-1.53-2.52-1.02-4.71-2.45-6.57-4.29-1.87-1.85-3.32-4-4.35-6.46s-1.56-5.15-1.56-8.07.52-5.61,1.56-8.07c1.04-2.46,2.49-4.61,4.35-6.46,1.86-1.84,4.05-3.28,6.57-4.29,2.52-1.02,5.26-1.53,8.22-1.53s5.7.51,8.22,1.53,4.71,2.45,6.57,4.29c1.86,1.85,3.32,4,4.35,6.46,1.04,2.46,1.56,5.15,1.56,8.07s-.52,5.61-1.56,8.07-2.49,4.61-4.35,6.46c-1.86,1.84-4.06,3.28-6.57,4.29-2.52,1.02-5.26,1.53-8.22,1.53Zm0-1.1c2.77,0,5.34-.48,7.73-1.44,2.38-.96,4.46-2.32,6.23-4.06,1.77-1.75,3.14-3.79,4.12-6.11.98-2.33,1.47-4.87,1.47-7.64s-.49-5.31-1.47-7.64c-.98-2.33-2.36-4.36-4.12-6.11-1.77-1.75-3.84-3.1-6.23-4.07s-4.96-1.44-7.73-1.44-5.34.48-7.73,1.44c-2.38.96-4.46,2.32-6.23,4.07-1.77,1.75-3.14,3.79-4.12,6.11-.98,2.33-1.47,4.87-1.47,7.64s.49,5.31,1.47,7.64c.98,2.33,2.35,4.36,4.12,6.11,1.77,1.75,3.84,3.1,6.23,4.06,2.38.96,4.96,1.44,7.73,1.44Z"/>
    <path d="m634.85,632.07v-42.78h1.15v23.76l-.58,4.04.58,4.04v10.96h-1.15Zm14.47.17c-2.73,0-5.17-.64-7.32-1.93-2.15-1.29-3.85-3.08-5.1-5.36-1.25-2.29-1.87-4.89-1.87-7.81s.62-5.56,1.87-7.81,2.95-4.02,5.1-5.3c2.15-1.29,4.59-1.93,7.32-1.93s5.19.64,7.38,1.93c2.19,1.29,3.92,3.06,5.19,5.3s1.9,4.85,1.9,7.81-.63,5.53-1.9,7.81c-1.27,2.29-3,4.08-5.19,5.36-2.19,1.29-4.65,1.93-7.38,1.93Zm0-1.1c2.54,0,4.81-.6,6.83-1.79,2.02-1.19,3.6-2.84,4.76-4.96,1.15-2.11,1.73-4.54,1.73-7.26s-.58-5.2-1.73-7.29c-1.15-2.09-2.74-3.73-4.76-4.9-2.02-1.17-4.3-1.76-6.83-1.76s-4.81.59-6.83,1.76c-2.02,1.17-3.6,2.81-4.76,4.9-1.15,2.1-1.73,4.53-1.73,7.29s.58,5.15,1.73,7.26c1.15,2.11,2.74,3.77,4.76,4.96,2.02,1.19,4.3,1.79,6.83,1.79Z"/>
    <path d="m680.4,632.24c-2.42,0-4.69-.38-6.8-1.15-2.11-.77-3.73-1.75-4.84-2.94l.69-.92c1.08,1.04,2.58,1.95,4.5,2.74,1.92.79,4.07,1.18,6.46,1.18,3.54,0,6.07-.61,7.61-1.84,1.54-1.23,2.31-2.83,2.31-4.79,0-1.42-.37-2.55-1.1-3.37-.73-.83-1.7-1.46-2.91-1.9-1.21-.44-2.55-.8-4.01-1.07-1.46-.27-2.92-.56-4.38-.86s-2.8-.74-4.01-1.3c-1.21-.56-2.18-1.33-2.91-2.31-.73-.98-1.1-2.3-1.1-3.95,0-1.34.37-2.59,1.1-3.75.73-1.15,1.87-2.09,3.43-2.83,1.56-.73,3.57-1.1,6.03-1.1,1.85,0,3.67.28,5.48.84,1.81.56,3.27,1.3,4.38,2.22l-.69.92c-1.19-.96-2.59-1.68-4.21-2.16-1.61-.48-3.27-.72-4.96-.72-3.27,0-5.64.63-7.12,1.9s-2.22,2.83-2.22,4.67c0,1.46.37,2.62,1.1,3.49.73.87,1.7,1.53,2.91,1.99s2.55.83,4.01,1.1c1.46.27,2.91.56,4.35.87s2.77.73,3.98,1.27,2.18,1.28,2.91,2.22c.73.94,1.1,2.22,1.1,3.83,0,1.5-.4,2.84-1.21,4.01-.81,1.17-2.03,2.09-3.66,2.74-1.63.65-3.7.98-6.2.98Z"/>
    <path d="m694.93,603.35v-1.1h17.01v1.1h-17.01Zm12.97,28.89c-2.34,0-4.13-.67-5.36-2.02-1.23-1.35-1.85-3.11-1.85-5.3v-29.18h1.15v28.89c0,2.12.52,3.73,1.56,4.84,1.04,1.12,2.56,1.67,4.55,1.67s3.65-.61,4.96-1.84l.81.81c-.69.73-1.57,1.27-2.62,1.62-1.06.35-2.12.52-3.2.52Z"/>
    <path d="m732.81,632.24c-2.88,0-5.44-.64-7.67-1.93-2.23-1.29-3.99-3.08-5.28-5.36-1.29-2.29-1.93-4.89-1.93-7.81s.6-5.56,1.79-7.81c1.19-2.25,2.83-4.02,4.93-5.3,2.09-1.29,4.45-1.93,7.06-1.93s4.97.62,7.06,1.87c2.09,1.25,3.75,2.99,4.96,5.22,1.21,2.23,1.82,4.79,1.82,7.67v.29h-26.99v-1.1h26.35l-.46.86c0-2.61-.56-4.96-1.67-7.03s-2.62-3.71-4.53-4.9c-1.9-1.19-4.08-1.79-6.54-1.79s-4.59.6-6.52,1.79c-1.92,1.19-3.43,2.83-4.53,4.9s-1.64,4.42-1.64,7.03v.23c0,2.73.6,5.15,1.79,7.26,1.19,2.11,2.83,3.77,4.9,4.96,2.08,1.19,4.44,1.79,7.09,1.79,2,0,3.89-.38,5.68-1.15,1.79-.77,3.28-1.92,4.47-3.46l.81.81c-1.31,1.62-2.92,2.84-4.84,3.66-1.92.83-3.96,1.24-6.11,1.24Z"/>
    <path d="m750,603.35v-1.1h17.01v1.1h-17.01Zm12.97,28.89c-2.34,0-4.13-.67-5.36-2.02-1.23-1.35-1.85-3.11-1.85-5.3v-29.18h1.15v28.89c0,2.12.52,3.73,1.56,4.84,1.04,1.12,2.56,1.67,4.55,1.67s3.65-.61,4.96-1.84l.81.81c-.69.73-1.57,1.27-2.62,1.62-1.06.35-2.12.52-3.2.52Z"/>
    <path d="m777.67,632.07v-29.81h1.15v8.25l-.12-.17c.81-2.61,2.22-4.64,4.24-6.08,2.02-1.44,4.54-2.16,7.58-2.16v1.15h-.35c-3.58,0-6.36,1.14-8.36,3.43-2,2.29-3,5.41-3,9.37v16.03h-1.15Z"/>
    <path d="m797.16,597.07l8.07-6.34h2.31l-8.65,6.34h-1.73Zm2.02,35v-29.81h1.15v29.81h-1.15Z"/>
    <path d="m824.72,632.24c-2.81,0-5.32-.64-7.53-1.93-2.21-1.29-3.95-3.06-5.22-5.33s-1.9-4.88-1.9-7.84.63-5.57,1.9-7.84,3.01-4.04,5.22-5.31c2.21-1.27,4.72-1.9,7.53-1.9,2.15,0,4.16.4,6.03,1.21,1.86.81,3.43,2.02,4.7,3.63l-.81.86c-1.15-1.58-2.59-2.74-4.32-3.49-1.73-.75-3.59-1.12-5.59-1.12-2.58,0-4.88.59-6.92,1.76-2.04,1.17-3.64,2.81-4.81,4.9-1.17,2.1-1.76,4.53-1.76,7.29s.59,5.2,1.76,7.29c1.17,2.1,2.78,3.74,4.81,4.93,2.04,1.19,4.34,1.79,6.92,1.79,2,0,3.86-.38,5.59-1.15,1.73-.77,3.17-1.92,4.32-3.46l.81.86c-1.27,1.62-2.83,2.83-4.7,3.63-1.87.81-3.87,1.21-6.03,1.21Z"/>
    <path d="m845.02,594.01c-.38,0-.73-.15-1.04-.46-.31-.31-.46-.65-.46-1.04,0-.42.15-.78.46-1.07.31-.29.65-.43,1.04-.43.42,0,.78.14,1.07.43.29.29.43.64.43,1.07,0,.38-.14.73-.43,1.04-.29.31-.64.46-1.07.46Zm-.58,38.06v-29.81h1.15v29.81h-1.15Z"/>
    <path d="m866.53,632.24c-2.23,0-4.13-.35-5.71-1.04-1.58-.69-2.78-1.67-3.6-2.94-.83-1.27-1.24-2.73-1.24-4.38,0-1.42.34-2.74,1.01-3.95.67-1.21,1.78-2.19,3.32-2.94,1.54-.75,3.63-1.12,6.29-1.12h11.94v1.09h-11.99c-3.38,0-5.79.64-7.24,1.93-1.44,1.29-2.16,2.93-2.16,4.93,0,2.23.83,4.01,2.48,5.33,1.65,1.33,3.96,1.99,6.92,1.99s5.26-.66,7.12-1.99c1.86-1.33,3.28-3.2,4.24-5.62l.58.75c-.81,2.38-2.22,4.31-4.24,5.77-2.02,1.46-4.58,2.19-7.7,2.19Zm11.36-.17v-19.49c0-3.11-.81-5.46-2.42-7.03s-3.96-2.36-7.04-2.36c-2.23,0-4.27.38-6.11,1.15-1.85.77-3.42,1.77-4.73,3l-.81-.81c1.42-1.34,3.15-2.42,5.19-3.23s4.17-1.21,6.4-1.21c3.46,0,6.1.88,7.93,2.65,1.83,1.77,2.74,4.36,2.74,7.78v19.55h-1.15Z"/>
  </g>
  <path class="cls-1" d="m614.98,48.61c-.15-.16-.31-.31-.46-.47-3.4-3.37-7.23-6.25-11.11-9.04-3.85-2.77-7.55-5.7-11.6-8.19-5.69-3.5-11.66-6.54-17.81-9.17-3.61-1.54-7.29-2.95-11.01-4.21l-.33-.13C535.39,5.86,506.44,0,476.6,0c-20.72,0-40.98,2.77-60.2,8.22-19.26,5.47-37.47,13.27-54.14,23.18-16.68,9.93-32.04,21.96-45.66,35.76-13.62,13.8-25.48,29.31-35.25,46.09-9.77,16.79-17.42,35.11-22.75,54.46-5.32,19.34-8.02,39.62-8.02,60.28s2.7,41.24,8.02,60.58c5.33,19.38,12.94,37.7,22.61,54.48,9.66,16.76,21.51,32.2,35.22,45.89,13.72,13.71,29.09,25.64,45.68,35.48,16.56,9.82,34.72,17.51,53.97,22.88,19.23,5.36,39.49,8.08,60.22,8.08s41.52-2.78,60.61-8.25l2.44-.72c4.61-1.38,8.36-2.63,11.82-3.91,23.18-8.59,44.99-20.1,64.8-34.21,1.95-1.47,3.52-2.95,4.55-4.31.66-.87.97-1.8.97-2.96v-136.03c0-3.38-1.13-4.48-1.51-4.84-1.06-1.02-2.61-1.52-4.73-1.52h-12.66c-4.72,0-6.23,1.55-6.23,6.36v125.36l-1.96,1.49c-14.33,10.85-31.76,20.08-51.8,27.44-5.2,1.91-10.72,3.63-16.43,5.1l-.41.09c-9.02,1.52-18.09,2.29-26.96,2.29-16.24,0-32.57-1.84-48.52-5.47-16.14-3.67-30.83-9.63-43.65-17.72-12.99-8.18-23.65-18.85-31.7-31.71-8.15-13.02-12.28-28.9-12.28-47.2,0-10.82,2.11-20.6,6.27-29.08,4.11-8.37,9.83-15.79,17-22.05,7.01-6.1,15.23-11.44,24.45-15.87,9.03-4.34,18.75-8.17,28.86-11.39,10.04-3.19,20.45-6.07,30.95-8.57,10.22-2.42,20.49-4.78,30.51-7,24.08-5.46,45.38-11.69,63.3-18.51,17.71-6.74,32.56-14.6,44.15-23.39,11.36-8.61,19.93-18.53,25.47-29.49,5.53-10.93,8.33-23.76,8.33-38.16,0-17.38-3.46-33.23-10.28-47.13-2.05-4.18-4.54-8.12-7.11-11.99-3.09-4.65-5.68-9.4-9.58-13.42Zm-3.84,97.34c-3.39,7.35-8.17,14.05-14.2,19.9-5.92,5.75-12.96,10.82-20.91,15.07-7.73,4.14-16.19,7.93-25.13,11.26-8.91,3.32-18.36,6.32-28.09,8.91-9.71,2.59-19.52,5-29.15,7.17-11.53,2.8-23.49,5.8-35.47,8.88-12.13,3.12-24.16,6.83-35.76,11.01-11.54,4.16-22.61,9.06-32.89,14.56-10.07,5.39-19.03,11.95-26.64,19.5-7.5,7.45-13.51,16.23-17.88,26.12-4.33,9.82-6.52,21.44-6.52,34.53,0,17.31,2.92,33.1,8.69,46.93l8.9,21.37-18.3-17.22c-.94-.86-1.88-1.72-2.79-2.63-12.23-12.19-22.83-25.91-31.53-40.78-8.69-14.86-15.56-31.1-20.43-48.26-4.87-17.18-7.34-35.29-7.34-53.83s2.36-35.6,7.03-52.56c4.65-16.93,11.31-33.12,19.8-48.09,8.49-14.98,18.94-28.86,31.06-41.26,12.11-12.38,25.76-23.14,40.57-31.99,14.81-8.85,31.08-15.86,48.34-20.85,17.32-5,35.65-7.53,54.48-7.53,21.76,0,42.95,3.59,62.97,10.67,19.23,6.81,37.85,16.58,55.33,29.06l.81.72c5.15,5.73,9.36,12.07,12.53,18.84,5.12,10.91,7.71,22.62,7.71,34.79,0,9.6-1.74,18.24-5.19,25.7Z"/>
  <path class="cls-1" d="m614.98,48.61c-.15-.16-.31-.31-.46-.47-3.4-3.37-7.23-6.25-11.11-9.04-3.85-2.77-7.55-5.7-11.6-8.19-5.69-3.5-11.66-6.54-17.81-9.17-3.61-1.54-7.29-2.95-11.01-4.21l-.33-.13C535.39,5.86,506.44,0,476.6,0c-20.72,0-40.98,2.77-60.2,8.22-19.26,5.47-37.47,13.27-54.14,23.18-16.68,9.93-32.04,21.96-45.66,35.76-13.62,13.8-25.48,29.31-35.25,46.09-9.77,16.79-17.42,35.11-22.75,54.46-5.32,19.34-8.02,39.62-8.02,60.28s2.7,41.24,8.02,60.58c5.33,19.38,12.94,37.7,22.61,54.48,9.66,16.76,21.51,32.2,35.22,45.89,13.72,13.71,29.09,25.64,45.68,35.48,16.56,9.82,34.72,17.51,53.97,22.88,19.23,5.36,39.49,8.08,60.22,8.08s41.52-2.78,60.61-8.25l2.44-.72c4.61-1.38,8.36-2.63,11.82-3.91,23.18-8.59,44.99-20.1,64.8-34.21,1.95-1.47,3.52-2.95,4.55-4.31.66-.87.97-1.8.97-2.96v-136.03c0-3.38-1.13-4.48-1.51-4.84-1.06-1.02-2.61-1.52-4.73-1.52h-12.66c-4.72,0-6.23,1.55-6.23,6.36v125.36l-1.96,1.49c-14.33,10.85-31.76,20.08-51.8,27.44-5.2,1.91-10.72,3.63-16.43,5.1l-.41.09c-9.02,1.52-18.09,2.29-26.96,2.29-16.24,0-32.57-1.84-48.52-5.47-16.14-3.67-30.83-9.63-43.65-17.72-12.99-8.18-23.65-18.85-31.7-31.71-8.15-13.02-12.28-28.9-12.28-47.2,0-10.82,2.11-20.6,6.27-29.08,4.11-8.37,9.83-15.79,17-22.05,7.01-6.1,15.23-11.44,24.45-15.87,9.03-4.34,18.75-8.17,28.86-11.39,10.04-3.19,20.45-6.07,30.95-8.57,10.22-2.42,20.49-4.78,30.51-7,24.08-5.46,45.38-11.69,63.3-18.51,17.71-6.74,32.56-14.6,44.15-23.39,11.36-8.61,19.93-18.53,25.47-29.49,5.53-10.93,8.33-23.76,8.33-38.16,0-17.38-3.46-33.23-10.28-47.13-2.05-4.18-4.54-8.12-7.11-11.99-3.09-4.65-5.68-9.4-9.58-13.42Zm-3.84,97.34c-3.39,7.35-8.17,14.05-14.2,19.9-5.92,5.75-12.96,10.82-20.91,15.07-7.73,4.14-16.19,7.93-25.13,11.26-8.91,3.32-18.36,6.32-28.09,8.91-9.71,2.59-19.52,5-29.15,7.17-11.53,2.8-23.49,5.8-35.47,8.88-12.13,3.12-24.16,6.83-35.76,11.01-11.54,4.16-22.61,9.06-32.89,14.56-10.07,5.39-19.03,11.95-26.64,19.5-7.5,7.45-13.51,16.23-17.88,26.12-4.33,9.82-6.52,21.44-6.52,34.53,0,17.31,2.92,33.1,8.69,46.93l8.9,21.37-18.3-17.22c-.94-.86-1.88-1.72-2.79-2.63-12.23-12.19-22.83-25.91-31.53-40.78-8.69-14.86-15.56-31.1-20.43-48.26-4.87-17.18-7.34-35.29-7.34-53.83s2.36-35.6,7.03-52.56c4.65-16.93,11.31-33.12,19.8-48.09,8.49-14.98,18.94-28.86,31.06-41.26,12.11-12.38,25.76-23.14,40.57-31.99,14.81-8.85,31.08-15.86,48.34-20.85,17.32-5,35.65-7.53,54.48-7.53,21.76,0,42.95,3.59,62.97,10.67,19.23,6.81,37.85,16.58,55.33,29.06l.81.72c5.15,5.73,9.36,12.07,12.53,18.84,5.12,10.91,7.71,22.62,7.71,34.79,0,9.6-1.74,18.24-5.19,25.7Z"/>
  <path class="cls-2" d="m515.22,71.35c.2,0,.4,0,.6-.01,4.46,1.83,9.07,3.2,13.4,5.44,4.5,2.33,8.31,5.41,11.96,8.79.41.38.7.97,1.42.82.84.76,1.14,2.02,2.29,2.5.02.84.41,1.42,1.18,1.75.23.94.81,1.53,1.75,1.78.18,1.55,1.76,2.15,2.34,3.44.04.82.43,1.41,1.17,1.76.05.38.1.76.15,1.14.46,1.34.83,2.74,2.18,3.53.05.37.09.75.14,1.12.26,1.13.5,2.27,1.63,2.91.04.39.07.77.11,1.16.34,1.26.28,2.71,1.65,3.48.03.39.06.78.09,1.17.2,1.87.66,3.65,1.84,5.17-.38,2.27.33,4.37,1.03,6.47-.19,1.42.18,2.74.7,4.03.05,1.18.09,2.35.14,3.53,0,2.92.02,5.83.02,8.75-.1,1.35-.19,2.71-.29,4.06-.88.54-.44,1.67-1.03,2.34-.37,2.17-.74,4.34-1.11,6.51-.86.76-.67,1.81-.8,2.78-.62.46-.73,1.18-.93,1.85-.41.48-.79.98-.77,1.66-.61,1.63-2.06,2.84-2.31,4.64-.68.4-1.27.84-1.03,1.77-1.2,1.55-2.4,3.11-3.6,4.66-.67.4-1.16.91-1.1,1.77-.78.39-1.41.95-1.85,1.71-.58.19-.48.73-.58,1.16-1.7-.11-1.49,1.61-2.27,2.38-.21.18-.42.36-.63.54-.77.58-1.55,1.17-2.32,1.75-.39.39-.78.77-1.18,1.16l-.55.59c-.58.58-1.16,1.17-1.74,1.75-.57.45-1.14.89-1.72,1.34-1.57-.09-2.09,1.26-2.93,2.16-.47.04-1.01-.06-1.18.58-.18.2-.36.4-.55.6-1.76,0-2.17,2.02-3.65,2.45-.69.43-1.38.85-2.07,1.28-.81.37-1.61.75-2.41,1.12-.63.04-.96.44-1.17.98-.44.1-.97,0-1.16.58-2.95.9-5.59,2.4-8.14,4.09h0c-1.42.72-3.28.63-4.19,2.29-3.66.6-6.83,2.62-10.36,3.63-.41-.12-.59.12-.71.47-1.64,0-3.16.41-4.52,1.35-.61.05-1.33-.38-1.76.42-.38.06-.77.12-1.15.17-.47-.13-.93-.2-1.2.35-.76.27-1.52.54-2.29.81-.61.03-1.33-.41-1.78.38-1.15.12-2.3.23-3.46.35-3.11,0-6.21-.02-9.32-.02-.77-.08-1.54-.16-2.32-.24-.24-.56-.71-.49-1.18-.41-1.55-.82-3.1-1.65-4.64-2.47-.06-.33-.2-.55-.58-.48-1.81-1.77-3.63-3.55-5.44-5.32-.14-.45-.3-1.03-.84-.96-.38.05-.36.57-.22.95-.45,4.66.14,9.31.22,13.97.38,1.82.8,3.62,2,5.12-.35.24-.33.57-.22.92.68.53.17,1.69,1.11,2.08.2.4.41.79.61,1.19-.16,1.28.86,1.73,1.64,2.35.05.24.1.48.16.73.53.53,1.07,1.06,1.6,1.59-.07.89.39,1.43,1.15,1.78,2.39,2.68,4.1,3.18,5.77,1.69.9-.32.52-1.12.65-1.73,1.08-.43,1.14-1.38,1.2-2.33.92-2.94.67-5.85-.19-8.74.44-.71.75-1.47.72-2.33l.57-.14c3.11-.66,6.21-.55,9.32.02.57.25,1.15.49,1.72.74.21.59.74.46,1.19.52.2.19.4.38.6.57.18.97.8,1.52,1.72,1.77.24.57.47,1.15.71,1.72.29.62.38,1.38,1.09,1.73.33.99.66,1.98.99,2.98,0,3.46.02,6.91.02,10.37-.79.67-.44,1.56-.45,2.38-.54.24-.51.7-.45,1.17-.03.58-.06,1.17-.09,1.75-.61.42-.86,1.07-1.08,1.74.41,2.28-1.27,4.14-1.29,6.33-.34.08-.57.25-.52.64-.98,2.12-1.97,4.25-2.95,6.37-.33.07-.59.21-.52.62-.84,1.64-2.53,2.74-2.96,4.64-.77.33-.97,1.06-1.22,1.75-1.15,1.15-2.3,2.29-3.45,3.44-.77.04-1.19.44-1.22,1.21-1.92,1.24-4.05,1.32-6.23,1.17-.47-.78-1.17-.49-1.83-.42-.38-.05-.77-.1-1.15-.15-.22-.61-.69-.55-1.18-.44-2.83-1.2-6.04-1.27-8.68-3.02-.23-.6-.44-.54-.65.01-.59-.19-1.17-.38-1.76-.56-.09-.14-.17-.29-.26-.43-.1.14-.19.29-.29.43-.2,0-.39,0-.59,0-.24-.55-.7-.5-1.17-.41-.77-.27-1.53-.54-2.3-.82-1.49-1-3.23-1.14-4.93-1.55,1.28,1.58,2.18,3.47,4.3,4.02.16.18.33.37.49.55.13.65.5,1.08,1.15,1.24.04.81.56,1.06,1.28,1.09,1.03,1.3,2.07,2.59,3.55,3.43.26.85.81,1.25,1.71,1.09.26.22.52.44.78.66.46.54.91,1.08,1.37,1.63.44.24.88.48,1.32.71.56.89,1.13,1.76,2.35,1.75.21.55.6.93,1.15,1.15.55.89,1.21,1.64,2.35,1.76.17.58.66.54,1.11.57.1.31.26.53.63.42l.64.13c.34,1.14,1.42,1.24,2.29,1.62.39.03.78.06,1.17.1,2.62,1.75,4.22,1.35,6.92-1.74.21-.04.42-.08.63-.13.8-.2,1.12-.87,1.46-1.51.87-.84,1.74-1.67,2.62-2.51.39.06.53-.12.49-.49,1.81-2.07,4.14-3.7,5.37-6.27.65-.48,1.21-1.03,1.28-1.9,1.16-.61,1.63-1.75,2.18-2.83.8-.35,1.1-1.04,1.25-1.84.15-.16.31-.31.46-.47.71-.42,1.27-.92,1.06-1.86.96-.99,1.61-2.13,1.71-3.53.39-.28.67-.61.61-1.13.4-.5.82-.99.69-1.7.84-.28,1.2-.91,1.24-1.76.72-.62.96-1.47,1.06-2.37.64-.13.53-.69.64-1.12.32-.07.52-.25.45-.62.04-.19.08-.38.12-.57.73-.35,1.09-.95,1.15-1.74.78-.33,1.04-.99,1.13-1.77.97-.77,1.94-1.53,2.91-2.3,1.91-.44,3.83-.79,5.81-.74.2,0,.4,0,.59,0,1.01.95,2.29.63,3.48.75.83.73,1.88.88,2.9,1.14.17.58.69.56,1.14.65l1.74,1.08c.62.91,1.3,1.74,2.39,2.12.43.52.85,1.03,1.28,1.55.36.72.88,1.26,1.61,1.6.27.95.53,1.9.8,2.85-.22.9.23,1.41,1.01,1.74.22.97.44,1.94.66,2.92.2.67.32,1.39,1.03,1.76-.11,2.6.85,5.03,1.23,7.55.01,5.63.02,11.25.04,16.88-.2,2.13-.41,4.27-.61,6.4-.38.33-.4.73-.25,1.17-.11,1.35-.23,2.7-.34,4.06-.95.52-.41,1.68-1.03,2.34-.02.98-.03,1.95-.05,2.93-.78.39-.55,1.09-.52,1.73-.06.77-.11,1.54-.17,2.3-.87.56-.4,1.68-1,2.35-.19,1.75.14,3.55-.61,5.23-.02.46-.15,1.05.53,1.07.64.02.94-.53,1.19-1.05.19,0,.37-.04.54-.11,2.79-.85,5.18-2.43,7.51-4.12.4,0,.8,0,1.21-.01.77-.38,1.54-.76,2.32-1.15.2.01.4.02.59.03,1.55.2,3.17,0,4.65.69.24.37.48.75.71,1.12.38.57.76,1.14,1.14,1.72,0,1.77,0,3.53,0,5.3-.62.87-1.39,1.67-1.14,2.88-.13,1.13-.02,2.37-.43,3.38-1.92,4.74-4.87,8.75-8.98,11.86-.37-.07-.56.13-.67.44-1.46,1.34-3.31,1.92-5.13,2.54-.94-.32-1.43.25-1.84.96-1.13.25-2.26.51-3.39.76-.48-.13-.96-.26-1.19.39-1.15.26-2.31.53-3.46.79-.63-.09-1.33-.48-1.79.35-.35.02-.71.05-1.06.07-.26-.57-.56-.55-.9-.06-3.89.23-7.65-.06-10.77-2.82-.07-.33-.23-.55-.62-.49-1.37-1.04-1.98-2.51-2.3-4.13.55-.9-.31-1.22-.7-1.73-.07-.98-.14-1.95-.22-2.93,0-.78-.02-1.56-.02-2.34.22-2.09.44-4.18.66-6.27.06-.63.12-1.25.18-1.88.21-1.37.6-2.72.35-4.13.48-.46.99-.91.74-1.7.07-1.55.89-3.08.1-4.65.34-1.88.87-3.76.23-6.3-1.04,2.04-1.82,3.59-2.6,5.13-.97,1.53-1.93,3.07-2.9,4.6-.77.06-1.29.33-1.03,1.24-2.37,2.89-4.73,5.78-7.1,8.66-.66.14-1.11.48-1.17,1.2-1.39.18-1.85,1.28-2.33,2.35-.58.55-1.16,1.11-1.74,1.66-.69.14-1.01.62-1.15,1.26-2.36.81-3.9,2.73-5.78,4.21-.89-.23-1.13.32-1.21,1.03-1.73.82-3.47,1.65-5.2,2.47-.39-.11-.55.11-.63.44-.57.24-1.13.47-1.7.71-.39-.11-.56.13-.67.45l-1.07.04c-.1-.14-.2-.29-.3-.43-.06.15-.12.29-.18.44-.65.81-1.62.46-2.44.67-.41-.13-.59.11-.7.45-.93.25-1.85.49-2.78.74-.63-.05-1.33-.47-1.8.35-1.15.08-2.29.15-3.44.23-4.07.02-8.15.04-12.22.06-1.35-.07-2.69-.15-4.04-.22-.26-.58-.73-.47-1.2-.36-.97-.24-1.81-.96-2.89-.76-.47-.56-.77-1.73-1.77-.53h-1.14c-.98-1.58-2.84-.74-4.11-1.51-4.46-1.57-8.7-3.61-12.76-6.04-.07-.34-.25-.52-.62-.45-3.08-.95-5.16-3.58-8.09-4.79-.25-.95-.47-1.92-1.82-1.62-1.16-.81-2.32-1.62-3.47-2.42-.06-.33-.21-.55-.59-.49-.67-.27-.67-1.33-1.57-1.31-.2-.65-.72-.99-1.28-1.28-3.08-3.06-6.16-6.11-9.23-9.17-.2-.64-.61-1.09-1.25-1.32-1.03-1.09-2.06-2.19-3.09-3.28.08-.38-.13-.55-.46-.62-3.24-4.66-6.79-9.1-9.67-14.04-1.22-2.09-1.94-4.51-3.71-6.28-.17-.74-.41-1.44-1.22-1.73.16-1.7-1.32-2.65-1.9-4.04-1.53-3.69-2.5-7.62-4.58-11.07.12-.51.07-.95-.5-1.18.2-2.56-2.14-4.41-1.95-6.96.16-.49.15-.93-.4-1.17-2.03-4.05-1.49-8.64-2.71-12.89-.78-2.72-1.33-5.6-1.36-8.41-.08-6.87-.3-13.75.45-20.6.83-.85.48-1.91.51-2.9.62-2.91,1.24-5.81,1.87-8.72.61-.22.5-.71.43-1.18.04-.19.08-.38.12-.57.54-.47,1.25-.84.97-1.76.55-1.32,1.23-2.59,1.35-4.05.76-.35,1.31-.82,1.08-1.77,1.52-2.15,3.05-4.3,3.56-6.97.32-.06.56-.2.49-.59.8-1.32,1.61-2.64,2.41-3.97.71-.42,1.27-.93,1.06-1.87.23-.34.45-.68.68-1.02.71-.43,1.28-.95,1.16-1.89.57-.46,1.09-.95,1.16-1.75.5-.2.69-.61.75-1.1.33-.41.67-.81,1-1.22.74-.34,1.14-.91,1.2-1.72.33-.06.54-.22.43-.61.62-.78,1.23-1.55,1.85-2.33.57-.59,1.14-1.19,1.71-1.78h.01c.67-.45,1.32-.92,1.56-1.74,1.23-1.34,2.46-2.68,3.7-4.02,1.13-.14,1.8-.87,2.3-1.8h0c.75,0,1.21-.37,1.4-1.09.45.05.8-.09.96-.54.63-.24,1.22-.52,1.54-1.16.25-.09.49-.17.74-.26,1.57-.19,2.9-.84,3.97-2.02.23-.08.46-.16.68-.24,1.16.14,2.12-.25,2.92-1.09.58-.04,1.15-.09,1.73-.13,4.96-.36,9.74-1.68,14.53-2.89.2,0,.4-.01.59-.02.49.08.96.09,1.17-.5,1.36-.04,2.36-.77,3.17-1.77,1.66-2.05,2.41-4.53,3.25-6.97.63-.21.57-.69.47-1.18,1.16-1.35.4-3.21,1.24-4.65.88-.4.52-1.11.45-1.76l1.24-4.66c1.03-.59.35-1.54.49-2.32,1.01-4.04,2.02-8.09,3.04-12.13.71-.41,1.28-.89,1.01-1.84.1-.17.14-.35.13-.54,1.39-.76,1.15-2.36,1.81-3.5.36-.97.72-1.94,1.08-2.91.32-.07.56-.21.49-.61.44-.76,1.29-1.32,1.19-2.36.69-.13.59-.67.59-1.16.41-.75.82-1.49,1.23-2.24.75-.36,1.11-.98,1.18-1.8l-.03.02c.21-.2.42-.41.63-.61.38-.56.76-1.12,1.13-1.68.96-.53,1.4-1.44,1.8-2.38,1.51-1,2.48-2.48,3.45-3.94,1.35-.38,2.02-1.53,2.85-2.5.83-.51,1.95-.61,2.33-1.72,1.25.02,1.74-.93,2.3-1.79.2-.18.41-.35.61-.53.87.03,1.42-.41,1.77-1.16,1.15-.29,2.28-.6,2.88-1.77.98,0,1.9-.08,2.28-1.21.21-.18.41-.36.62-.53,2.86-.53,5.55-1.44,7.74-3.48.32-.07.64-.14.96-.21,1.73-.06,3.2-.85,4.64-1.69.2,0,.39.02.59.02,12.07-3.51,24.29-4.1,36.66-1.88Z"/>
</svg>