<svg width="146" height="147" viewBox="0 0 146 147" fill="none" xmlns="http://www.w3.org/2000/svg">
<g filter="url(#filter0_d_345_420)">
<circle cx="73" cy="69.0833" r="65" fill="white"/>
<path d="M68.3699 59.5789C66.4082 58.3251 64.9084 56.0214 64.5304 53.7717C64.5184 53.7717 64.5064 53.7777 64.4944 53.7777C63.9425 53.7777 63.6426 53.3098 63.6546 52.8839C63.5166 52.3139 63.9185 51.636 64.5424 51.63C64.9684 49.5783 67.482 42.6253 70.1816 44.2571C70.4936 44.4431 70.4756 44.881 70.2356 45.109C68.4119 46.8547 67.0561 47.9706 66.4442 50.5262C66.0902 52.002 66.4082 53.8977 67.1761 55.2355C68.4239 57.4192 70.1097 58.979 72.6953 58.865C73.3672 58.835 73.3672 60.2028 72.6713 60.3888C71.6934 60.6468 70.7216 60.5808 69.8037 60.2748C65.1484 63.3884 60.787 67.8757 58.7413 73.143C56.2516 79.5561 61.2309 86.4431 65.5443 89.4727C66.0542 89.8326 65.5563 90.7865 64.9204 90.5825C59.1552 88.7528 55.6037 80.4259 56.3956 74.7148C56.8095 71.7332 58.8732 68.7396 60.631 66.3999C62.7427 63.5983 65.3823 61.3607 68.3699 59.5789ZM88.737 89.4787C90.2428 88.0329 89.6129 84.7873 89.4089 82.9336C88.941 78.7522 87.3032 74.8107 86.8413 70.6293C86.2954 65.71 86.9133 60.7128 87.9331 55.9014C88.3351 54.0177 88.857 52.2 88.863 50.2562C88.869 48.3905 88.611 46.4648 88.3891 44.611C88.3051 43.9031 87.3212 44.1251 87.2372 44.725C86.9613 46.7947 87.3212 48.8824 87.0992 50.9581C86.8773 53.0278 86.1754 55.0376 85.7434 57.0713C84.9815 60.6828 84.7056 64.3482 84.8676 68.0317C85.0355 71.7932 85.8574 74.9547 86.6013 78.6202C86.9853 80.5039 87.6872 82.9336 87.7591 84.8533C87.7951 85.7532 87.8071 87.4749 87.2372 88.2008C86.5293 89.0887 87.9331 90.2466 88.737 89.4787ZM62.8027 82.9576C60.337 78.9142 61.0029 73.4729 63.1626 69.4595C64.2665 67.4078 65.8863 65.5421 67.8 64.2163C71.1415 61.9006 75.6649 62.2005 78.5924 65.0501C81.2021 67.5878 81.604 71.4932 81.724 74.9367C81.904 80.036 81.0221 86.0112 75.6649 88.1409C70.9975 89.9946 65.3043 87.049 62.8027 82.9576ZM77.6266 84.8533C79.3303 83.0596 79.7983 79.3641 79.9243 76.9824C80.2002 71.8832 78.5564 65.704 73.8891 64.4682C68.6519 63.7663 64.4944 69.0936 63.3186 73.8089C62.1848 78.3682 63.5226 83.7375 68.1299 85.7292C71.2075 87.055 75.1909 87.427 77.6266 84.8533ZM76.9367 74.5108C77.1347 75.2247 77.2006 75.9446 77.0447 76.6585C77.0147 76.7905 76.9847 76.9164 76.9367 77.0484C76.8527 77.3004 76.0668 78.8842 75.6109 78.5122C77.8725 80.336 75.8508 84.7393 73.4152 85.2793C71.9994 85.5912 70.4516 84.8833 69.9417 83.4975C69.8277 83.1796 69.7617 82.8496 69.7377 82.5257C69.6177 82.5197 69.5037 82.4717 69.3958 82.3637C67.59 80.5219 66.1802 78.5542 65.6163 75.9626C65.0824 73.4849 65.6223 70.8873 67.836 69.4175C69.4857 68.3257 71.3095 68.5476 72.6413 69.5135C72.7133 69.0096 72.9173 68.5476 73.3432 68.2477C74.0571 67.7498 75.2689 67.7258 76.0488 68.0737C77.0147 68.4996 77.0867 69.3575 76.5047 70.1254C75.4309 71.5712 76.5047 72.951 76.9367 74.5108ZM74.957 72.3091C74.759 71.5652 74.681 70.7553 75.0469 70.0534C75.0889 69.9754 75.5569 69.4715 75.5569 69.4415C75.5269 69.0876 75.1129 69.1356 74.861 69.1236C73.7331 69.0876 74.0511 70.1614 73.9431 70.9233C74.381 71.6792 74.633 72.5731 74.585 73.5389C74.555 74.1508 73.5532 74.2588 73.4932 73.6289C73.1932 70.4014 69.3418 68.4457 67.416 71.6612C66.1142 73.8389 66.9481 76.6825 68.004 78.7822C68.2079 79.1901 69.2638 81.3378 69.8577 81.3498C69.9957 80.7379 70.2596 80.15 70.6016 79.6221C70.9315 79.1181 71.7654 79.5201 71.5554 80.084C71.0815 81.3858 70.8415 83.8335 72.8213 83.7375C74.753 83.6415 76.0068 80.5279 74.591 79.1901C74.495 79.1001 74.453 79.0101 74.429 78.9142C73.8351 78.9922 73.2112 78.8782 72.6233 78.5662C71.5554 78.0023 70.5476 76.8625 70.6376 75.5966C70.6736 75.1047 71.4535 74.8767 71.6394 75.3987C72.2213 77.0424 75.3109 79.1541 75.6889 76.2145C75.8568 74.8947 75.2869 73.5629 74.957 72.3091Z" fill="#FD5E84"/>
<path d="M18.9944 64.6066C18.6114 64.7442 18.2703 64.9229 17.9713 65.1427C17.6679 65.3584 17.4127 65.6129 17.2059 65.9061C16.9949 66.1995 16.8385 66.5313 16.7368 66.9018C16.635 67.2679 16.592 67.6682 16.6078 68.1026C16.6346 68.8393 16.8482 69.4967 17.2488 70.0749C17.6493 70.653 18.2221 71.1013 18.9671 71.4196C19.7077 71.7338 20.6061 71.8717 21.6622 71.8333C22.7226 71.7947 23.6127 71.5897 24.3326 71.2181C25.0526 70.8465 25.5911 70.3536 25.9483 69.7394C26.3055 69.1251 26.4701 68.4347 26.4423 67.6682C26.4164 66.957 26.2491 66.3427 25.9403 65.8251C25.6314 65.3033 25.2076 64.9073 24.669 64.6369C24.126 64.3624 23.4946 64.2382 22.775 64.2644L22.8522 63.7499L22.9883 67.4932L21.3594 67.5524L21.1724 62.4102L22.6608 62.3561C23.7595 62.3161 24.7219 62.5157 25.5481 62.9547C26.3698 63.3896 27.015 64.01 27.4835 64.816C27.9518 65.6177 28.2052 66.5466 28.2436 67.6027C28.2867 68.7866 28.0519 69.8356 27.5393 70.7497C27.0266 71.6595 26.2789 72.3818 25.2963 72.9164C24.3094 73.4512 23.126 73.7437 21.7463 73.7939C20.7029 73.8318 19.7608 73.7211 18.9198 73.4617C18.0789 73.2023 17.3593 72.8213 16.7611 72.3185C16.1585 71.8117 15.6909 71.2082 15.3584 70.5082C15.0216 69.8041 14.8377 69.0283 14.8069 68.1808C14.7812 67.4739 14.8616 66.8122 15.0481 66.1956C15.2345 65.5748 15.5106 65.0189 15.8766 64.528C16.2423 64.0329 16.6835 63.6182 17.2001 63.2838C17.7125 62.9496 18.286 62.7156 18.9208 62.5816L18.9944 64.6066Z" fill="#707070"/>
<path d="M29.0854 56.7355L19.5435 54.4225L19.9938 52.5651L29.5356 54.8781L29.0854 56.7355ZM18.2986 53.1276C18.2203 53.4507 18.0454 53.702 17.7738 53.8817C17.4991 54.0563 17.2106 54.107 16.9083 54.0337C16.6018 53.9594 16.3685 53.7823 16.2084 53.5023C16.0451 53.2172 16.0026 52.9131 16.0809 52.59C16.1592 52.267 16.3357 52.0182 16.6104 51.8436C16.882 51.6639 17.171 51.6112 17.4775 51.6855C17.7798 51.7588 18.0126 51.938 18.1759 52.2231C18.336 52.5031 18.3769 52.8046 18.2986 53.1276Z" fill="#707070"/>
<path d="M27.2096 44.2918L32.3706 47.0024L31.4819 48.6944L22.7897 44.1292L23.6427 42.505L25.0574 43.2481L25.1139 43.1406C24.7587 42.6989 24.5534 42.1916 24.4981 41.6186C24.4448 41.0419 24.5896 40.4272 24.9324 39.7745C25.2435 39.1822 25.6404 38.7289 26.1232 38.4145C26.6022 38.0981 27.1495 37.9451 27.765 37.9555C28.3804 37.9659 29.0466 38.1593 29.7634 38.5358L35.2922 41.4396L34.4036 43.1316L29.0784 40.3348C28.4484 40.0039 27.8699 39.9094 27.3429 40.0514C26.8121 40.1914 26.3961 40.5481 26.0949 41.1216C25.8888 41.5139 25.7904 41.9075 25.7997 42.3022C25.811 42.6932 25.9341 43.0635 26.1692 43.4132C26.4025 43.7572 26.7493 44.05 27.2096 44.2918Z" fill="#707070"/>
<path d="M41.8053 34.143C41.1208 34.8265 40.3852 35.2689 39.5986 35.4702C38.812 35.6655 38.0181 35.6302 37.2167 35.3645C36.4154 35.0927 35.6549 34.5965 34.9353 33.8758C34.2247 33.1641 33.7311 32.4044 33.4545 31.5967C33.1809 30.7859 33.1317 29.9889 33.3071 29.2056C33.4854 28.4192 33.8973 27.7039 34.5426 27.0595C34.9346 26.6681 35.3793 26.3535 35.8766 26.1159C36.374 25.8782 36.9074 25.752 37.4769 25.7374C38.0464 25.7227 38.6369 25.8527 39.2484 26.1274C39.8569 26.399 40.4758 26.8499 41.1051 27.4802L41.5838 27.9596L36.061 33.4743L35.0493 32.4611L39.2469 28.2698C38.8916 27.914 38.5045 27.6711 38.0858 27.5412C37.664 27.4083 37.2422 27.393 36.8203 27.4951C36.4013 27.5942 36.017 27.8184 35.6672 28.1677C35.2873 28.5471 35.0489 28.9718 34.9521 29.4418C34.8554 29.9058 34.8791 30.3638 35.0234 30.8159C35.1677 31.262 35.413 31.6584 35.7593 32.0052L36.5497 32.7967C37.0134 33.2611 37.4893 33.5748 37.9773 33.7379C38.4683 33.8979 38.9474 33.9164 39.4146 33.7932C39.8787 33.667 40.3083 33.4066 40.7033 33.0122C40.9596 32.7563 41.1572 32.4867 41.296 32.2036C41.4318 31.9174 41.5028 31.6237 41.5091 31.3224C41.5153 31.021 41.4507 30.7212 41.3154 30.4228L42.8258 29.3753C43.0996 29.8546 43.2454 30.3684 43.2631 30.9169C43.2807 31.4593 43.1689 32.0076 42.9274 32.5618C42.6859 33.1101 42.3119 33.6371 41.8053 34.143Z" fill="#707070"/>
<path d="M52.776 26.2218C51.9341 26.6624 51.1094 26.8511 50.302 26.7879C49.4963 26.7189 48.7543 26.4315 48.0759 25.9256C47.3975 25.4197 46.8301 24.7307 46.3737 23.8585C45.9113 22.975 45.6694 22.1084 45.648 21.2587C45.6246 20.4052 45.8151 19.6297 46.2197 18.9323C46.6242 18.2348 47.2361 17.6717 48.0554 17.2429C48.7161 16.8971 49.3693 16.7116 50.015 16.6863C50.6587 16.6572 51.2538 16.7787 51.8001 17.0507C52.3503 17.3207 52.8087 17.7325 53.1753 18.2861L51.5273 19.1486C51.2233 18.7882 50.8319 18.5458 50.353 18.4212C49.878 18.2947 49.3705 18.3727 48.8306 18.6552C48.3587 18.9022 48.0104 19.2432 47.786 19.6781C47.5633 20.1073 47.4733 20.6017 47.516 21.1612C47.5568 21.7171 47.7392 22.3046 48.0633 22.9238C48.3952 23.5581 48.778 24.0551 49.2116 24.415C49.6452 24.7748 50.1038 24.9894 50.5873 25.0586C51.0746 25.1258 51.558 25.0339 52.0375 24.783C52.3584 24.6151 52.6185 24.4044 52.8178 24.151C53.0189 23.8919 53.1498 23.6045 53.2107 23.2889C53.2753 22.9713 53.2615 22.637 53.1693 22.2861L54.8173 21.4236C55.0513 22.0178 55.131 22.6158 55.0564 23.2176C54.9817 23.8194 54.7538 24.3811 54.3728 24.9028C53.9954 25.4225 53.4632 25.8622 52.776 26.2218Z" fill="#707070"/>
<path d="M65.6934 21.8844C64.7877 22.0489 63.9597 21.9848 63.2093 21.6923C62.4589 21.3998 61.8293 20.9143 61.3207 20.2357C60.812 19.5571 60.467 18.7189 60.2858 17.721C60.1039 16.7189 60.1314 15.8088 60.3682 14.9905C60.6051 14.1722 61.0234 13.4943 61.6231 12.9566C62.2227 12.4189 62.9754 12.0679 63.881 11.9034C64.7867 11.739 65.6147 11.803 66.3651 12.0955C67.1155 12.3881 67.7455 12.8757 68.2549 13.5585C68.7643 14.2412 69.11 15.0836 69.292 16.0857C69.4732 17.0836 69.445 17.9896 69.2073 18.8036C68.9697 19.6177 68.551 20.2936 67.9513 20.8313C67.3517 21.3689 66.599 21.72 65.6934 21.8844ZM65.413 20.3047C66 20.1981 66.4582 19.9547 66.7876 19.5743C67.117 19.194 67.3271 18.7293 67.418 18.1801C67.513 17.6301 67.5042 17.0448 67.3915 16.4243C67.2796 15.808 67.0825 15.2591 66.8002 14.7776C66.5213 14.2912 66.1604 13.9258 65.7176 13.6814C65.2747 13.4369 64.7598 13.368 64.1728 13.4746C63.5816 13.582 63.1196 13.8283 62.7868 14.2135C62.4582 14.598 62.2467 15.0674 62.1524 15.6215C62.0616 16.1707 62.0721 16.7535 62.184 17.3699C62.2967 17.9904 62.4921 18.5418 62.7702 19.024C63.0526 19.5054 63.4148 19.8663 63.8568 20.1065C64.3031 20.346 64.8218 20.412 65.413 20.3047Z" fill="#707070"/>
<path d="M78.204 8.10973L77.3383 21.172L75.4313 21.0456L76.297 7.98334L78.204 8.10973Z" fill="#707070"/>
<path d="M87.6385 23.4915C86.7625 23.2089 86.0627 22.7616 85.5393 22.1495C85.0158 21.5374 84.69 20.8122 84.5619 19.9739C84.4337 19.1356 84.5253 18.2338 84.8366 17.2686C85.1492 16.2993 85.6031 15.5098 86.1981 14.9003C86.7932 14.2907 87.482 13.8905 88.2644 13.6996C89.0469 13.5086 89.8761 13.5544 90.7522 13.837C91.6282 14.1195 92.3279 14.5668 92.8514 15.1789C93.3749 15.791 93.7 16.5182 93.8268 17.3606C93.9537 18.203 93.8608 19.1088 93.5482 20.0781C93.2369 21.0434 92.7843 21.8287 92.1906 22.4342C91.5968 23.0397 90.9087 23.4379 90.1262 23.6289C89.3438 23.8198 88.5145 23.774 87.6385 23.4915ZM88.1371 21.9665C88.7048 22.1496 89.2237 22.1513 89.6936 21.9715C90.1635 21.7917 90.5681 21.4811 90.9075 21.0399C91.2509 20.5999 91.5193 20.0797 91.7129 19.4795C91.9052 18.8833 91.9905 18.3064 91.9689 17.7487C91.9526 17.1882 91.807 16.6957 91.532 16.2712C91.257 15.8467 90.8355 15.5429 90.2678 15.3598C89.6959 15.1754 89.1723 15.1744 88.6971 15.357C88.2258 15.5408 87.8179 15.8547 87.4732 16.2988C87.1339 16.7401 86.8681 17.2588 86.6758 17.855C86.4822 18.4552 86.3942 19.0336 86.4118 19.59C86.4334 20.1477 86.5824 20.6367 86.8587 21.0572C87.1391 21.479 87.5652 21.782 88.1371 21.9665Z" fill="#707070"/>
<path d="M97.5851 32.6259C96.9522 32.1703 96.4672 31.6951 96.1302 31.2005C95.7967 30.7084 95.5847 30.2223 95.4944 29.7425C95.404 29.2626 95.4049 28.8091 95.4972 28.3819L97.2262 28.7918C97.2101 29.0112 97.2188 29.2617 97.2524 29.5432C97.2871 29.8306 97.3957 30.132 97.5783 30.4472C97.7644 30.7649 98.0718 31.0781 98.5007 31.3869C99.0886 31.8101 99.6778 32.0164 100.268 32.0057C100.856 31.9985 101.374 31.6836 101.823 31.0611L102.95 29.4944L102.852 29.4234C102.637 29.5257 102.366 29.6171 102.04 29.6976C101.718 29.7806 101.35 29.7887 100.936 29.7218C100.522 29.6548 100.071 29.4458 99.5836 29.0948C98.9542 28.6417 98.4928 28.0864 98.1995 27.4289C97.9121 26.7705 97.8294 26.0467 97.9512 25.2575C98.0789 24.4674 98.4478 23.6486 99.0578 22.8013C99.6677 21.954 100.334 21.3311 101.057 20.9325C101.783 20.5364 102.514 20.3593 103.251 20.4011C103.99 20.4395 104.679 20.689 105.319 21.1496C105.814 21.5056 106.153 21.8762 106.338 22.2613C106.525 22.6429 106.625 23.0037 106.638 23.3436C106.654 23.6859 106.649 23.9737 106.623 24.207L106.737 24.2891L107.667 22.9974L109.187 24.0916L103.324 32.2362C102.831 32.921 102.267 33.3684 101.633 33.5786C100.998 33.7888 100.334 33.8039 99.6389 33.624C98.9475 33.4466 98.2629 33.1139 97.5851 32.6259ZM100.852 28.0547C101.298 28.3759 101.75 28.5435 102.207 28.5576C102.67 28.5707 103.122 28.4391 103.562 28.1629C104.009 27.8856 104.43 27.472 104.826 26.9222C105.212 26.3861 105.472 25.8568 105.607 25.3341C105.741 24.8115 105.737 24.3253 105.594 23.8755C105.453 23.4222 105.156 23.0324 104.702 22.7063C104.236 22.3702 103.759 22.2111 103.274 22.2292C102.791 22.2437 102.322 22.3995 101.866 22.6965C101.414 22.9961 101.005 23.4 100.639 23.9084C100.263 24.4306 100.013 24.9461 99.8884 25.4549C99.7636 25.9637 99.7772 26.4408 99.9291 26.8862C100.085 27.3341 100.392 27.7236 100.852 28.0547Z" fill="#707070"/>
<path d="M107.779 36.6657L115.341 30.404L116.56 31.876L108.997 38.1378L107.779 36.6657ZM117.123 30.1812C116.911 29.9252 116.814 29.6346 116.833 29.3095C116.857 28.985 116.989 28.7235 117.229 28.5251C117.472 28.324 117.753 28.243 118.074 28.2822C118.4 28.322 118.669 28.4699 118.881 28.7259C119.093 28.9819 119.187 29.2722 119.162 29.5967C119.144 29.9219 119.013 30.185 118.77 30.3861C118.53 30.5845 118.248 30.6638 117.921 30.6241C117.601 30.5849 117.335 30.4372 117.123 30.1812Z" fill="#707070"/>
<path d="M122.672 46.788L121.635 45.3671C121.802 45.2046 121.941 45.0086 122.052 44.7789C122.164 44.553 122.22 44.2934 122.218 43.9999C122.217 43.7063 122.129 43.3816 121.955 43.0257C121.717 42.5396 121.409 42.1873 121.032 41.9688C120.658 41.7484 120.301 41.7216 119.96 41.8883C119.666 42.0326 119.482 42.2578 119.409 42.5641C119.336 42.8703 119.361 43.2945 119.484 43.8368L119.848 45.395C120.058 46.2982 120.065 47.0444 119.869 47.6336C119.674 48.2227 119.264 48.67 118.64 48.9754C118.112 49.234 117.566 49.3113 117.003 49.2075C116.446 49.1056 115.917 48.8401 115.417 48.4109C114.92 47.9855 114.497 47.4169 114.148 46.705C113.665 45.7176 113.481 44.8089 113.596 43.9789C113.716 43.1471 114.131 42.4692 114.843 41.9454L115.908 43.4809C115.526 43.796 115.303 44.1686 115.238 44.5987C115.177 45.027 115.273 45.4995 115.526 46.0162C115.802 46.5788 116.138 46.9714 116.537 47.1939C116.939 47.4146 117.31 47.4415 117.651 47.2747C117.927 47.1398 118.108 46.9231 118.194 46.6247C118.282 46.33 118.271 45.9487 118.161 45.4809L117.757 43.828C117.542 42.9133 117.543 42.1586 117.759 41.5639C117.977 40.9731 118.401 40.524 119.028 40.2167C119.549 39.9619 120.075 39.8844 120.608 39.9841C121.141 40.0839 121.642 40.3368 122.111 40.7429C122.584 41.1471 122.983 41.6802 123.307 42.3424C123.774 43.2954 123.934 44.1467 123.789 44.8964C123.647 45.6442 123.275 46.2747 122.672 46.788Z" fill="#707070"/>
<path d="M128.111 58.0193L126.608 58.324L125.542 53.068L127.046 52.7632L128.111 58.0193ZM129.637 53.7055L130.017 55.5786L120.914 57.4237C120.551 57.4974 120.288 57.6071 120.126 57.753C119.969 57.898 119.874 58.0629 119.842 58.2476C119.815 58.4357 119.822 58.6321 119.863 58.8368C119.894 58.9871 119.931 59.1166 119.975 59.2251C120.018 59.3336 120.053 59.4179 120.078 59.478L118.599 60.13C118.536 60.0299 118.463 59.8838 118.38 59.6918C118.294 59.5007 118.218 59.2551 118.153 58.9553C118.044 58.4642 118.039 57.987 118.136 57.5237C118.234 57.0605 118.448 56.6584 118.779 56.3174C119.11 55.9764 119.565 55.747 120.146 55.6293L129.637 53.7055Z" fill="#707070"/>
<path d="M118.624 68.3851C118.664 67.7642 118.816 67.2103 119.078 66.7234C119.344 66.2368 119.708 65.8611 120.169 65.5963C120.63 65.3358 121.182 65.2264 121.824 65.268C122.377 65.3038 122.825 65.4396 123.168 65.6754C123.512 65.9111 123.776 66.2165 123.961 66.5915C124.146 66.9664 124.277 67.3806 124.354 67.834C124.432 68.2874 124.483 68.7476 124.508 69.2147C124.538 69.806 124.563 70.2858 124.582 70.6543C124.605 71.0231 124.662 71.2937 124.753 71.4661C124.845 71.6386 125.005 71.7322 125.235 71.7471L125.279 71.75C125.836 71.7861 126.278 71.6567 126.605 71.3619C126.931 71.0713 127.114 70.6177 127.154 70.0011C127.196 69.359 127.086 68.8437 126.825 68.4553C126.568 68.0714 126.272 67.7981 125.937 67.6355L126.461 65.8695C127.043 66.1207 127.503 66.4623 127.842 66.8942C128.185 67.3307 128.423 67.8222 128.554 68.3687C128.689 68.9156 128.738 69.4845 128.699 70.0756C128.674 70.4668 128.6 70.8784 128.478 71.3104C128.36 71.7468 128.168 72.1486 127.901 72.5156C127.633 72.8869 127.266 73.1812 126.799 73.3986C126.337 73.6163 125.748 73.7021 125.034 73.6558L118.528 73.2342L118.649 71.3716L119.988 71.4584L119.993 71.3818C119.754 71.2425 119.524 71.0419 119.302 70.7798C119.08 70.5177 118.902 70.1881 118.77 69.7909C118.638 69.3938 118.589 68.9251 118.624 68.3851ZM120.128 68.8989C120.094 69.4262 120.169 69.8837 120.353 70.2714C120.537 70.6634 120.791 70.9681 121.114 71.1855C121.441 71.4074 121.798 71.5309 122.185 71.5559L123.448 71.6378C123.385 71.5653 123.329 71.4294 123.282 71.2299C123.24 71.0349 123.205 70.8128 123.178 70.5634C123.156 70.3143 123.135 70.0717 123.117 69.8356C123.102 69.5998 123.089 69.4025 123.078 69.2438C123.055 68.8708 122.998 68.5276 122.908 68.2143C122.817 67.9052 122.673 67.6525 122.476 67.4561C122.284 67.2643 122.018 67.1573 121.677 67.1353C121.205 67.1047 120.837 67.2559 120.572 67.5889C120.311 67.9222 120.163 68.3588 120.128 68.8989Z" fill="#707070"/>
<path d="M30.9668 109.586C30.3401 108.911 29.9477 108.179 29.7896 107.39C29.6315 106.6 29.7012 105.808 29.9986 105.014C30.2959 104.22 30.816 103.477 31.5589 102.787C32.3049 102.093 33.0863 101.626 33.9032 101.384C34.7202 101.143 35.5167 101.13 36.2928 101.345C37.0689 101.56 37.7702 102.005 38.3969 102.679C39.0236 103.353 39.4159 104.085 39.574 104.875C39.7321 105.665 39.6609 106.458 39.3604 107.255C39.0599 108.053 38.5367 108.798 37.7907 109.491C37.0479 110.182 36.2695 110.646 35.4557 110.885C34.6419 111.123 33.847 111.135 33.0709 110.92C32.2948 110.705 31.5934 110.26 30.9668 109.586ZM32.1463 108.498C32.5524 108.935 33.0045 109.19 33.5023 109.262C34.0002 109.335 34.505 109.261 35.0165 109.042C35.531 108.825 36.0192 108.502 36.4811 108.073C36.94 107.646 37.2961 107.185 37.5494 106.687C37.8088 106.19 37.9221 105.689 37.8893 105.184C37.8564 104.68 37.637 104.209 37.2308 103.772C36.8217 103.332 36.3652 103.075 35.8613 103.003C35.3603 102.933 34.851 103.008 34.3334 103.227C33.8219 103.447 33.3367 103.77 32.8778 104.196C32.4159 104.626 32.0568 105.087 31.8005 105.582C31.5472 106.079 31.4385 106.579 31.4744 107.08C31.5132 107.585 31.7372 108.058 32.1463 108.498Z" fill="#707070"/>
<path d="M39.9666 117.371L46.8167 106.216L48.4454 107.216L45.9 111.361L45.9981 111.421C46.1995 111.305 46.4595 111.187 46.7779 111.068C47.0963 110.948 47.4659 110.9 47.8866 110.923C48.3096 110.943 48.7807 111.112 49.3 111.431C49.9754 111.846 50.4734 112.387 50.794 113.054C51.1146 113.721 51.2282 114.468 51.135 115.296C51.0453 116.126 50.7229 116.993 50.1676 117.897C49.6124 118.801 48.9856 119.484 48.2873 119.945C47.5912 120.403 46.8729 120.645 46.1323 120.67C45.3939 120.692 44.687 120.495 44.0115 120.08C43.5031 119.768 43.1397 119.427 42.9213 119.058C42.7066 118.691 42.5787 118.338 42.5376 117.998C42.4965 117.657 42.4815 117.368 42.4928 117.13L42.3566 117.046L41.5572 118.348L39.9666 117.371ZM44.1314 114.168C43.7702 114.756 43.5389 115.324 43.4375 115.872C43.3361 116.42 43.3701 116.919 43.5395 117.368C43.711 117.813 44.031 118.18 44.4995 118.467C44.9861 118.766 45.472 118.887 45.9571 118.83C46.4445 118.769 46.9088 118.566 47.3501 118.222C47.7951 117.88 48.1893 117.43 48.5327 116.871C48.8716 116.319 49.0924 115.772 49.1952 115.23C49.3016 114.69 49.2676 114.192 49.0933 113.735C48.9225 113.28 48.592 112.902 48.1018 112.601C47.6297 112.311 47.1556 112.187 46.6793 112.23C46.2067 112.275 45.7531 112.464 45.3185 112.797C44.8839 113.13 44.4882 113.587 44.1314 114.168Z" fill="#707070"/>
<path d="M63.8475 119.977L62.0994 119.78C62.0928 119.547 62.0423 119.312 61.9479 119.075C61.8577 118.84 61.704 118.623 61.4869 118.425C61.2698 118.228 60.9713 118.073 60.5913 117.96C60.0723 117.807 59.6047 117.795 59.1885 117.925C58.7734 118.051 58.5121 118.296 58.4045 118.66C58.3114 118.975 58.3529 119.262 58.529 119.523C58.7051 119.784 59.0345 120.053 59.5172 120.329L60.9112 121.115C61.7182 121.571 62.2726 122.071 62.5742 122.613C62.8759 123.156 62.9281 123.76 62.7311 124.426C62.5642 124.99 62.2521 125.444 61.7946 125.789C61.3424 126.131 60.7893 126.34 60.1353 126.418C59.4854 126.497 58.7804 126.424 58.0204 126.199C56.9661 125.887 56.1725 125.408 55.6394 124.761C55.1076 124.11 54.8893 123.346 54.9848 122.468L56.836 122.722C56.8097 123.216 56.9331 123.633 57.2062 123.972C57.4806 124.306 57.8935 124.555 58.4452 124.718C59.0459 124.896 59.5629 124.913 59.9962 124.77C60.4308 124.623 60.7018 124.368 60.8095 124.004C60.8965 123.71 60.8593 123.43 60.6979 123.165C60.5406 122.901 60.2523 122.651 59.833 122.416L58.3428 121.595C57.5235 121.135 56.968 120.624 56.6765 120.062C56.3891 119.501 56.3445 118.886 56.5428 118.216C56.7072 117.66 57.0064 117.22 57.4403 116.895C57.8741 116.57 58.3993 116.372 59.0158 116.301C59.6335 116.226 60.2958 116.293 61.0027 116.502C62.0202 116.803 62.7558 117.261 63.2095 117.875C63.6645 118.485 63.8772 119.186 63.8475 119.977Z" fill="#707070"/>
<path d="M74.2861 118.677L74.1853 120.208L68.834 119.855L68.9348 118.325L74.2861 118.677ZM70.5245 116.072L72.4315 116.198L71.8213 125.465C71.7969 125.835 71.8339 126.117 71.9321 126.312C72.0306 126.502 72.1648 126.637 72.3347 126.716C72.5091 126.792 72.7004 126.836 72.9088 126.85C73.0619 126.86 73.1965 126.858 73.3127 126.845C73.4289 126.831 73.5193 126.82 73.584 126.811L73.8246 128.409C73.7113 128.445 73.5512 128.477 73.3443 128.506C73.1371 128.539 72.8803 128.548 72.5738 128.532C72.0715 128.507 71.6097 128.387 71.1883 128.172C70.7669 127.956 70.4351 127.644 70.193 127.235C69.9508 126.826 69.8492 126.326 69.8882 125.735L70.5245 116.072Z" fill="#707070"/>
<path d="M80.928 128.17L79.6405 118.437L81.4719 118.194L81.6764 119.741L81.7778 119.727C81.8859 119.18 82.1441 118.727 82.5522 118.367C82.964 118.004 83.455 117.784 84.0254 117.708C84.1436 117.693 84.2836 117.679 84.4453 117.666C84.6111 117.652 84.7414 117.646 84.836 117.646L85.0757 119.459C84.9969 119.448 84.8586 119.442 84.6609 119.443C84.4627 119.439 84.2664 119.45 84.0721 119.475C83.6243 119.535 83.2376 119.682 82.9121 119.919C82.5903 120.151 82.3501 120.447 82.1914 120.807C82.0322 121.164 81.9806 121.553 82.0365 121.976L82.8227 127.919L80.928 128.17Z" fill="#707070"/>
<path d="M96.732 124.58C95.8273 124.922 94.9749 125.023 94.175 124.884C93.3776 124.739 92.6681 124.381 92.0465 123.81C91.4274 123.233 90.9376 122.468 90.5773 121.516C90.2215 120.575 90.0832 119.68 90.1626 118.83C90.2459 117.978 90.5283 117.231 91.0098 116.589C91.4952 115.945 92.1644 115.462 93.0174 115.139C93.5355 114.943 94.0701 114.839 94.6212 114.826C95.1723 114.814 95.7105 114.918 96.2358 115.138C96.7612 115.358 97.2462 115.719 97.6911 116.221C98.1344 116.718 98.5136 117.384 98.8287 118.217L99.0685 118.85L91.7686 121.612L91.262 120.272L96.8101 118.174C96.6322 117.703 96.379 117.323 96.0505 117.033C95.7205 116.738 95.3421 116.551 94.9155 116.471C94.4928 116.39 94.0503 116.436 93.5879 116.611C93.0857 116.801 92.694 117.091 92.4129 117.479C92.1342 117.863 91.9678 118.29 91.9138 118.762C91.8623 119.228 91.9232 119.69 92.0966 120.148L92.4924 121.194C92.7245 121.808 93.0297 122.29 93.4077 122.639C93.7898 122.986 94.2191 123.2 94.6956 123.279C95.1707 123.355 95.6692 123.294 96.1914 123.096C96.5301 122.968 96.8209 122.803 97.0638 122.602C97.3051 122.397 97.4904 122.158 97.6198 121.886C97.7492 121.614 97.8134 121.314 97.8125 120.986L99.6198 120.651C99.6727 121.2 99.5947 121.729 99.3857 122.236C99.1791 122.738 98.852 123.192 98.4043 123.598C97.9591 123.999 97.4016 124.326 96.732 124.58Z" fill="#707070"/>
<path d="M105.255 108.588L106.111 109.861L101.66 112.853L100.804 111.58L105.255 108.588ZM100.685 108.825L102.271 107.759L107.452 115.467C107.659 115.775 107.861 115.976 108.058 116.07C108.252 116.16 108.44 116.185 108.623 116.144C108.808 116.097 108.986 116.015 109.16 115.899C109.287 115.813 109.392 115.729 109.476 115.648C109.56 115.566 109.624 115.502 109.67 115.455L110.837 116.573C110.769 116.67 110.662 116.794 110.516 116.943C110.373 117.096 110.175 117.26 109.922 117.435C109.51 117.722 109.071 117.909 108.606 117.996C108.14 118.083 107.687 118.039 107.245 117.863C106.804 117.688 106.418 117.354 106.087 116.862L100.685 108.825Z" fill="#707070"/>
<path d="M118.571 110.076C118.147 110.532 117.68 110.865 117.169 111.077C116.655 111.286 116.136 111.347 115.611 111.261C115.089 111.171 114.592 110.907 114.121 110.469C113.715 110.092 113.454 109.704 113.337 109.304C113.22 108.904 113.208 108.5 113.302 108.093C113.395 107.686 113.555 107.282 113.782 106.881C114.009 106.481 114.26 106.092 114.535 105.714C114.886 105.237 115.17 104.85 115.388 104.552C115.604 104.252 115.73 104.006 115.769 103.815C115.807 103.623 115.742 103.449 115.573 103.293L115.54 103.262C115.131 102.882 114.707 102.703 114.268 102.725C113.831 102.744 113.403 102.98 112.982 103.433C112.544 103.904 112.303 104.372 112.26 104.838C112.216 105.298 112.273 105.697 112.43 106.035L110.908 107.072C110.616 106.51 110.475 105.954 110.485 105.405C110.495 104.85 110.622 104.319 110.866 103.813C111.106 103.304 111.428 102.832 111.832 102.398C112.099 102.111 112.416 101.839 112.783 101.581C113.15 101.317 113.554 101.128 113.993 101.012C114.435 100.893 114.905 100.897 115.404 101.024C115.9 101.147 116.41 101.453 116.935 101.94L121.71 106.379L120.44 107.746L119.456 106.832L119.404 106.889C119.501 107.147 119.553 107.449 119.559 107.792C119.566 108.136 119.495 108.503 119.346 108.894C119.198 109.286 118.939 109.68 118.571 110.076ZM117.73 108.727C118.09 108.34 118.321 107.938 118.423 107.521C118.528 107.101 118.525 106.705 118.411 106.332C118.298 105.954 118.099 105.632 117.815 105.368L116.888 104.506C116.892 104.603 116.849 104.743 116.759 104.927C116.669 105.105 116.555 105.3 116.418 105.51C116.278 105.717 116.141 105.918 116.006 106.113C115.869 106.305 115.754 106.466 115.662 106.596C115.444 106.899 115.271 107.201 115.143 107.501C115.019 107.798 114.97 108.085 114.998 108.361C115.026 108.632 115.165 108.883 115.415 109.115C115.761 109.437 116.142 109.553 116.558 109.462C116.971 109.369 117.362 109.124 117.73 108.727Z" fill="#707070"/>
</g>
<defs>
<filter id="filter0_d_345_420" x="0" y="0.0833397" width="146" height="146" filterUnits="userSpaceOnUse" color-interpolation-filters="sRGB">
<feFlood flood-opacity="0" result="BackgroundImageFix"/>
<feColorMatrix in="SourceAlpha" type="matrix" values="0 0 0 0 0 0 0 0 0 0 0 0 0 0 0 0 0 0 127 0" result="hardAlpha"/>
<feOffset dy="4"/>
<feGaussianBlur stdDeviation="4"/>
<feComposite in2="hardAlpha" operator="out"/>
<feColorMatrix type="matrix" values="0 0 0 0 0 0 0 0 0 0 0 0 0 0 0 0 0 0 0.25 0"/>
<feBlend mode="normal" in2="BackgroundImageFix" result="effect1_dropShadow_345_420"/>
<feBlend mode="normal" in="SourceGraphic" in2="effect1_dropShadow_345_420" result="shape"/>
</filter>
</defs>
</svg>
